<svg width="178" height="83" viewBox="0 0 178 83" xmlns="http://www.w3.org/2000/svg" xmlns:xlink="http://www.w3.org/1999/xlink">
    <defs>
        <linearGradient x1="50.012%" y1="15.933%" x2="50.012%" y2="26.138%" id="cuzrdvyf2b">
            <stop stop-color="#00386E" offset="0%"/>
            <stop stop-color="#00386E" offset="79%"/>
            <stop stop-color="#009EE3" offset="84%"/>
            <stop stop-color="#009EE3" offset="100%"/>
        </linearGradient>
        <path d="M32 12.572v1.372H17.516v5.13H27.98v14.06H17.516v6.06H32V53H0V3c8.879-4.501 26.613-3.513 31.989.163v9.409H32z" id="pxnta8esaa"/>
    </defs>
    <g fill="none" fill-rule="evenodd">
        <path fill="#009EE3" d="M81.29 66h17.42V26.9H107V13H73v13.842l8.29.058zM116.751 13h16.752l12.402 39.21h13.14c2.607-.407 3.38-5.979.38-7.995-8.513-6.632-13.14-12.997-11.49-20.526 2.758-9.349 12.54-11.96 24.239-10.13v12.997c-.97.047-7.753.128-7.88 3.439-.103 5.711 13.683 7.506 13.706 20.06-.727 7.75-4.66 13.09-11.848 15.945h-31.83l-2.308-8.008h-13.728l3.23-10.234h7.06l-3.645-10.793L115.77 66H100l16.751-53zM134 68h32v5h-30.468zM59.991 13h3.245v39.164H78V66H47.023L47 20.087z"/>
        <path d="M13.667 79.822c0 .8.254 1.298.761 1.468.508.17 1.088.267 1.74.279l1.86.024c.279.012.58.024.931.024.35 0 .7-.012 1.04-.024.374-.024.748-.06 1.11-.097a6.81 6.81 0 0 0 .98-.17c.41-.12.724-.315.954-.594.23-.279.338-.618.338-1.043 0-.315-.072-.618-.217-.885-.145-.28-.363-.473-.665-.619-.254-.121-.592-.206-1.003-.267-.41-.048-.845-.084-1.28-.097H18.742c-.121.013-.23.025-.339.025h-1.087c-.29 0-.58.012-.882.048-.35.012-.689.049-1.003.097a4.147 4.147 0 0 0-.87.218c-.362.134-.592.352-.7.655-.11.304-.157.631-.157.983v-.025h-.037zm11.297 3.02H23.38v-1.249c-.29.497-.64.837-1.039 1.007-.41.17-.882.279-1.401.327-.484.024-.967.049-1.462.06-.496.013-.979.013-1.462.013h-1.583a9.429 9.429 0 0 1-3.045-.521c-.93-.34-1.389-1.213-1.389-2.644 0-1.153.217-1.965.64-2.438.435-.473 1.22-.764 2.368-.861l.774-.073c.253-.012.52-.024.773-.024.254-.012.52-.024.773-.024h.773c.496 0 1.003.012 1.498.024.496.012 1.003.036 1.499.073.47.024.845.097 1.147.206.302.109.58.303.846.594l.145.182c.048.06.109.133.17.206v-1.528c0-.133-.013-.279-.025-.412a3.727 3.727 0 0 0-.217-1.043c-.11-.34-.327-.595-.629-.8-.217-.158-.52-.268-.918-.328a8.33 8.33 0 0 0-1.256-.122l-.846-.036c-.278-.012-.532-.012-.761-.012h-.774c-.253 0-.519.012-.773.024-.253 0-.52.012-.773.037-.254.024-.52.048-.773.084-.58.073-.967.267-1.172.558-.206.291-.302.716-.302 1.262l-1.728-.025c0-1.164.266-1.964.785-2.4.52-.438 1.33-.704 2.44-.813l.63-.073c.205-.012.41-.024.627-.049.194 0 .4 0 .617-.012.217-.012.41-.012.616-.012h.918c.314 0 .628.012.942.024.472.012.93.049 1.39.097.459.049.906.146 1.353.267.979.255 1.595.728 1.848 1.42.254.69.375 1.479.375 2.376v6.658h-.036zM30.411 76.136l6.362-3.913h2.538l-7.453 4.6L40 82h-2.503l-7.086-4.611h-.907V82H28V68h1.504v8.136zM42.667 79.822c0 .8.254 1.298.761 1.468.508.17 1.088.267 1.74.279l1.86.024c.279.012.58.024.931.024.35 0 .7-.012 1.04-.024.374-.024.748-.06 1.11-.097a6.81 6.81 0 0 0 .98-.17c.41-.12.724-.315.954-.594.23-.279.338-.618.338-1.043 0-.315-.072-.618-.217-.885-.145-.28-.363-.473-.665-.619-.254-.121-.592-.206-1.003-.267-.41-.048-.845-.084-1.28-.097H47.742c-.121.013-.23.025-.339.025h-1.087c-.29 0-.58.012-.882.048a9 9 0 0 0-1.015.097 4.147 4.147 0 0 0-.87.218c-.362.134-.592.352-.7.655-.11.304-.158.631-.158.983v-.025h-.024zm11.297 3.02H52.38v-1.249c-.29.497-.64.837-1.039 1.007-.41.17-.882.279-1.401.327-.484.024-.967.049-1.462.06-.496.013-.979.013-1.462.013h-1.583a9.429 9.429 0 0 1-3.045-.521c-.93-.34-1.389-1.213-1.389-2.644 0-1.153.217-1.965.64-2.438.435-.473 1.22-.764 2.368-.861l.774-.073c.253-.012.52-.024.773-.024.254-.012.52-.024.773-.024h.773c.496 0 1.003.012 1.498.024.496.012 1.003.036 1.499.073.47.024.845.097 1.147.206.29.109.58.303.846.594l.145.182c.048.06.109.133.17.206v-1.528c0-.133-.013-.279-.025-.412a3.727 3.727 0 0 0-.217-1.043c-.11-.34-.327-.595-.629-.8-.217-.158-.52-.268-.918-.328a8.33 8.33 0 0 0-1.256-.122l-.846-.036c-.278-.012-.532-.012-.761-.012h-.774c-.253 0-.519.012-.773.024-.253 0-.52.012-.773.037-.254.024-.52.048-.773.084-.58.073-.967.267-1.172.558-.206.291-.302.716-.302 1.262l-1.728-.025c0-1.164.266-1.964.785-2.4.52-.438 1.33-.704 2.44-.813l.63-.073c.205-.012.41-.024.627-.049.194 0 .4 0 .617-.012.217-.012.41-.012.616-.012h.918c.314 0 .628.012.942.024.472.012.93.049 1.39.097.459.049.906.146 1.353.267.979.255 1.595.728 1.848 1.42.254.69.375 1.479.375 2.376v6.658h-.036zM58.596 78.169c0 1.161.183 2.027.536 2.574.354.559 1.186.866 2.486.91l.468.032c.16.011.32.011.49.011.16.011.32.022.468.022h.467c1.654 0 2.897-.164 3.718-.504.832-.34 1.243-1.39 1.243-3.155 0-.942-.126-1.73-.376-2.366-.251-.635-.935-1.03-2.064-1.194-.49-.066-.97-.11-1.46-.131-.49-.022-.98-.033-1.471-.033-1.642 0-2.805.175-3.49.537-.684.361-1.026 1.457-1.026 3.308v-.011h.011zM68.506 69H70v13.836h-1.494v-1.48c-.274.636-.695 1.052-1.266 1.25a6.502 6.502 0 0 1-1.779.372c-.16.011-.307.022-.456.022h-1.14a3.585 3.585 0 0 0-.342-.022h-.342c-2.053 0-3.604-.24-4.63-.712C57.513 81.795 57 80.415 57 78.147c0-2.026.388-3.385 1.152-4.064.775-.68 2.178-1.019 4.22-1.019l1.174-.022c.228.011.479.022.74.022.263 0 .537.011.8.022.387.022.763.066 1.128.099.365.043.661.11.912.208.331.142.605.317.821.558.217.23.41.504.57.8V69h-.01zM85.441 76.41c0-.06 0-.134-.011-.206-.012-.073-.012-.158-.012-.255a4.149 4.149 0 0 0-.15-.908 1.811 1.811 0 0 0-.496-.8 2.093 2.093 0 0 0-.982-.557 7.34 7.34 0 0 0-1.27-.218l-.635-.036c-.207-.013-.415-.013-.611-.013h-1.19c-.219.013-.438.025-.68.037l-.728.036c-.45.024-.89.097-1.316.218-.427.11-.774.29-1.05.521-.232.194-.393.436-.486.715-.092.278-.15.581-.185.872l-.034.29c-.012.11-.012.207-.012.292h9.848v.012zM87 77.779H75.536c.023.896.15 1.671.38 2.326.22.654.809 1.09 1.767 1.308.265.06.531.109.808.133.277.037.554.049.831.049.22.012.428.024.635.024h1.432c.162.012.323.024.473.024.162 0 .324-.012.474-.024.38-.012.739-.049 1.108-.097.358-.048.67-.145.935-.266.335-.17.577-.376.728-.63.15-.255.242-.57.265-.945l1.605-.025c-.012 1.272-.439 2.12-1.293 2.544a7.332 7.332 0 0 1-2.806.752l-.854.036c-.277.012-.554.012-.831.012-2.113 0-3.833-.218-5.173-.666-1.339-.449-2.02-2.048-2.02-4.786 0-2.24.416-3.73 1.247-4.458.831-.727 2.274-1.09 4.318-1.09h.531c.08.012.173.024.254.024h.254c.058 0 .115 0 .185.012.069.012.127.012.184.012 1.894.073 3.372.352 4.434.824 1.062.473 1.593 1.926 1.593 4.361v.267a.653.653 0 0 0-.023.133.32.32 0 0 1 .023.146zM90 72.145h1.468v1.574c.269-.67.695-1.105 1.289-1.317a6.54 6.54 0 0 1 1.86-.357c.157-.012.302-.023.437-.023h.426l.313-.022c.18.011.37.022.56.022.191 0 .37.011.561.023a7.819 7.819 0 0 1 2.286.424c.717.256 1.255.792 1.591 1.63.426-.983 1.054-1.563 1.894-1.775.84-.201 1.726-.302 2.667-.302h.202c1.569 0 2.869.212 3.9.648 1.03.435 1.546 1.573 1.546 3.415v5.904h-1.468v-5.927c0-1.26-.347-2.03-1.042-2.31-.695-.29-1.614-.424-2.746-.424h-.504a.212.212 0 0 1-.09.022h-.078c-.964 0-1.849.146-2.645.447-.795.301-1.199 1.071-1.199 2.31V82H99.76v-5.926c0-1.328-.392-2.12-1.165-2.366-.773-.257-1.726-.38-2.824-.38-1.165 0-2.174.145-3.014.435-.852.29-1.278 1.172-1.278 2.634v5.592h-1.468v-9.844H90zM114 68h2v1.829h-2V68zm0 4.223h2V82h-2v-9.777z" fill="#00386E" fill-rule="nonzero"/>
        <path d="M0 13.45 27.552.423c.922-.467 1.61-.618 2.683-.082L59 13.23 47.907 19.27l-.548-3.627c-9.332-4.351-23.668-8.095-37.082.606v2.893l-5.413-3.126-.07 11.046c1.552.35 1.482 1.318 0 1.738L6.02 33H2.368l1.365-4.27c-.852-.396-1.4-1.107 0-1.9l.14-11.198L0 13.451z" fill="#00386E"/>
        <g transform="translate(13 13)">
            <mask id="8tmfngz9pc" fill="#fff">
                <use xlink:href="#pxnta8esaa"/>
            </mask>
            <path fill="url(#cuzrdvyf2b)" fill-rule="nonzero" mask="url(#8tmfngz9pc)" d="M0-1.513h32V53H0z"/>
        </g>
        <path fill="#FFF" d="M13 23h32v2H13z"/>
    </g>
</svg>
