<svg width="265" height="47" viewBox="0 0 265 47" xmlns="http://www.w3.org/2000/svg" xmlns:xlink="http://www.w3.org/1999/xlink">
    <defs>
        <path id="wglbk4az6a" d="M0 0h33v47H0z"/>
    </defs>
    <g fill="none" fill-rule="evenodd">
        <path d="M150.402 0H127.67c-1.746 0-2.67.87-2.67 2.516 0 1.742.924 2.662 2.67 2.662h8.767v39.16c0 1.742.875 2.662 2.528 2.662 1.652 0 2.526-.92 2.526-2.662V5.178h8.91c1.7 0 2.599-.895 2.599-2.59C153 .895 152.102 0 150.402 0M227.257 35.727c-.486-.433-1.092-.653-1.8-.653-.869 0-1.498.27-1.855.781-3.526 4.118-8.241 6.206-14.015 6.206-2.476 0-4.868-.477-7.11-1.415a19.294 19.294 0 0 1-5.943-3.874c-1.695-1.628-3.067-3.582-4.073-5.809-1.008-2.22-1.517-4.649-1.517-7.217 0-2.477.486-4.872 1.449-7.118a19.927 19.927 0 0 1 3.938-5.985c1.65-1.72 3.638-3.116 5.907-4.149 2.265-1.032 4.738-1.554 7.349-1.554 2.34 0 4.609.361 6.743 1.071a14.288 14.288 0 0 1 5.623 3.486c.29.243.598.452.913.62.333.18.712.272 1.124.272.667 0 1.252-.245 1.738-.731.487-.486.733-1.071.733-1.738 0-.713-.281-1.356-.845-1.92-4.313-3.98-9.706-6-16.03-6-3.278 0-6.392.642-9.253 1.905-2.857 1.261-5.375 3.003-7.485 5.178a24.8 24.8 0 0 0-5.01 7.57c-1.22 2.852-1.838 5.91-1.838 9.093 0 3.18.619 6.216 1.838 9.022a23.745 23.745 0 0 0 5.013 7.397c2.109 2.104 4.626 3.788 7.485 5.003 2.86 1.216 5.972 1.832 9.25 1.832 3.512 0 6.838-.69 9.885-2.049a23.442 23.442 0 0 0 7.98-5.854l.025-.035a5.07 5.07 0 0 0 .367-.733 2.27 2.27 0 0 0 .157-.856c0-.717-.25-1.303-.743-1.746" fill="#FFF"/>
        <g transform="translate(232)">
            <mask id="1ek8unc8bb" fill="#fff">
                <use xlink:href="#wglbk4az6a"/>
            </mask>
            <path d="M30.698 0c-1.785 0-2.73.95-2.73 2.745v18.582H5.033V2.745C5.032.475 3.742 0 2.658 0 .92 0 0 .947 0 2.736v41.821C0 46.155.896 47 2.588 47c1.598 0 2.444-.845 2.444-2.443V26.506h22.937v18.051c0 1.115.462 2.443 2.658 2.443C32.179 47 33 46.155 33 44.557V2.736C33 .476 31.748 0 30.698 0" fill="#FFF" mask="url(#1ek8unc8bb)"/>
        </g>
        <path d="M183.274 22.725c-.486-.482-1.112-.725-1.86-.725h-22.828c-.75 0-1.374.243-1.861.725-.48.478-.725 1.075-.725 1.775 0 .653.243 1.236.722 1.735.485.508 1.112.765 1.864.765h22.828c.751 0 1.379-.257 1.864-.765.478-.499.722-1.082.722-1.735 0-.7-.246-1.297-.726-1.775M158.585 5h22.83c.75 0 1.376-.252 1.86-.746.48-.49.725-1.08.725-1.755 0-.72-.246-1.325-.73-1.792-.485-.47-1.108-.707-1.855-.707h-22.83c-.747 0-1.372.237-1.856.705-.483.47-.729 1.072-.729 1.794 0 .674.244 1.264.725 1.755.484.494 1.11.746 1.86.746M183.228 42.7a2.611 2.611 0 0 0-1.814-.7h-22.83a2.61 2.61 0 0 0-1.812.7c-.512.47-.772 1.076-.772 1.8s.26 1.329.772 1.798a2.605 2.605 0 0 0 1.813.702h22.829c.695 0 1.305-.236 1.814-.702.512-.47.772-1.074.772-1.799 0-.723-.26-1.329-.772-1.798M0 3h14.405c8.737 0 15.521 2.453 15.521 10.664 0 3.859-2.11 7.965-5.544 9.284v.264c4.3 1.14 7.618 4.376 7.618 10.12C32 42.08 24.76 46 15.606 46H0V3zm13.965 17.222c4.618 0 6.66-1.994 6.66-5.12 0-3.314-2.157-4.6-6.592-4.6H9.515v9.72h4.45zm.865 18.277c5.188 0 7.868-1.885 7.868-5.795 0-3.772-2.635-5.308-7.868-5.308H9.515v11.103h5.315zM37 30.012C37 19.23 44.448 13 52.5 13S68 19.23 68 30.012C68 40.772 60.552 47 52.5 47S37 40.771 37 30.012m21.338 0c0-5.613-1.938-9.257-5.839-9.257-3.9 0-5.836 3.644-5.836 9.257 0 5.612 1.937 9.233 5.836 9.233 3.901 0 5.84-3.621 5.84-9.233M75 36.04V0h9.84v36.435c0 2.08.977 2.74 1.78 2.74.378 0 .646 0 1.206-.132L89 46.192c-1.088.457-2.703.808-4.94.808C77.308 47 75 42.66 75 36.04M92 29.859c0-10.701 6.478-17.165 13.159-17.165 3.499 0 5.635 1.342 7.78 3.415l-.34-4.96V0H122v46.208h-7.67l-.677-3.243h-.233c-2.242 2.313-5.38 4.035-8.442 4.035C97.094 47 92 40.544 92 29.859m20.6 6.276V22.698c-1.663-1.535-3.529-2.07-5.25-2.07-3.046 0-5.715 2.9-5.715 9.122 0 6.424 2.15 9.317 5.79 9.317 2 0 3.617-.784 5.175-2.932" fill="#FFF"/>
    </g>
</svg>
