<svg width="86" height="29" viewBox="0 0 86 29" xmlns="http://www.w3.org/2000/svg" xmlns:xlink="http://www.w3.org/1999/xlink">
    <defs>
        <path id="236sol8bya" d="M0 0h86v25H0z"/>
    </defs>
    <g fill="none" fill-rule="evenodd">
        <path d="M66 26.704a2.704 2.704 0 1 1 0-5.408 2.704 2.704 0 0 1 0 5.408M66 19a5 5 0 1 0 0 10 5 5 0 0 0 0-10" fill="#FFF"/>
        <path d="M66.5 23a1.5 1.5 0 1 0 0 3 1.5 1.5 0 0 0 0-3M17.5 23a1.5 1.5 0 1 0 0 3 1.5 1.5 0 0 0 0-3" fill="#FFF"/>
        <path d="M17 26.704a2.704 2.704 0 1 1 0-5.408 2.704 2.704 0 0 1 0 5.408M17 19a5 5 0 1 0 0 10 5 5 0 0 0 0-10" fill="#FFF"/>
        <g>
            <mask id="yaa7qghumb" fill="#fff">
                <use xlink:href="#236sol8bya"/>
            </mask>
            <path d="M83.062 14.279h-1.427c-.823 0-1.29-.471-1.558-1.09V3.014h.742c.58 1.615 1.708 7.095 2.243 11.264zm.952 6.782c0 .173-.02.341-.052.506l.003.001a2.805 2.805 0 0 1-.022.112c.008-.037.012-.076.02-.113l-2.903-1.05v-1.101l2.908.189c.03.505.046.994.046 1.456zM79.41 3.929V13.876h-5.72V2.901c0-.41.391-.742.816-.742h4.904v1.77zm-6.446 6.46c0 .41-.344.743-.769.743H60.684a.756.756 0 0 1-.769-.743V2.902c0-.41.344-.743.769-.743h11.511c.425 0 .77.333.77.743v7.487zm-13.9 0c0 .41-.343.743-.768.743H46.785a.756.756 0 0 1-.77-.743V2.902c0-.41.345-.743.77-.743h11.51c.426 0 .77.333.77.743v7.487zm-13.899 0c0 .41-.344.743-.769.743h-11.51a.756.756 0 0 1-.77-.743V2.902c0-.41.345-.743.77-.743h11.51c.425 0 .77.333.77.743v7.487zm-13.899 0c0 .41-.344.743-.769.743H18.986a.756.756 0 0 1-.77-.743V2.902c0-.41.345-.743.77-.743h11.511c.425 0 .769.333.769.743v7.487zm-13.9 0c0 .41-.344.743-.768.743H5.086a.756.756 0 0 1-.769-.743V2.902c0-.41.345-.743.77-.743h11.51c.425 0 .77.333.77.743v7.487zm68.017-8.001c0-1.07-1.549-1.145-1.549-1.145s-1.944-.175-3.43-.29A3.96 3.96 0 0 0 77.817 0H4.197C2.04 0 .616 1.69.616 3.773L0 9.149v10.065c0 1.14.426 2.161 1.164 2.853.363.34.796.617 1.301.756C3.575 23.128 10.52 25 10.52 25h1.087a5.732 5.732 0 0 1-.335-1.92c0-3.276 2.75-5.933 6.142-5.933 3.392 0 6.142 2.657 6.142 5.934 0 .672-.122 1.316-.335 1.919h37.236a5.732 5.732 0 0 1-.335-1.92c0-3.276 2.75-5.933 6.142-5.933 3.392 0 6.142 2.657 6.142 5.934 0 .672-.121 1.316-.335 1.919h8.349c2.156 0 3.904-1.69 3.904-3.773 0-6.321-2.222-16.17-3.175-19.068h2.87l1.23 6.124A.74.74 0 0 0 86 7.557l-.617-5.17z" fill="#FFF" mask="url(#yaa7qghumb)"/>
        </g>
    </g>
</svg>
