<svg width="104" height="35" viewBox="0 0 104 35" xmlns="http://www.w3.org/2000/svg" xmlns:xlink="http://www.w3.org/1999/xlink">
    <defs>
        <path id="vdj6fxf28a" d="M0 0h104v31H0z"/>
    </defs>
    <g fill="none" fill-rule="evenodd">
        <path d="M80 32.245a3.245 3.245 0 1 1 0-6.49 3.245 3.245 0 0 1 0 6.49M80 23a6 6 0 1 0 0 12 6 6 0 0 0 0-12" fill="#1A1C2A"/>
        <path d="M80.5 27a1.5 1.5 0 1 0 0 3 1.5 1.5 0 0 0 0-3M21.5 27a1.5 1.5 0 1 0 0 3 1.5 1.5 0 0 0 0-3" fill="#1A1C2A"/>
        <path d="M21 32.245a3.245 3.245 0 1 1 0-6.49 3.245 3.245 0 0 1 0 6.49M21 23a6 6 0 1 0 0 12 6 6 0 0 0 0-12" fill="#1A1C2A"/>
        <g>
            <mask id="1knzf08jub" fill="#fff">
                <use xlink:href="#vdj6fxf28a"/>
            </mask>
            <path d="M100.447 17.706H98.72c-.995 0-1.56-.584-1.884-1.353V3.74h.897c.703 2.002 2.066 8.797 2.713 13.967zm1.152 8.41c0 .214-.025.423-.063.627l.003.001a3.555 3.555 0 0 1-.027.14c.01-.047.015-.095.024-.141l-3.51-1.302v-1.366l3.517.235c.035.626.056 1.232.056 1.805zM96.03 4.871v12.333h-6.917V3.6c0-.509.472-.921.986-.921h5.931v2.194zm-7.795 8.01a.926.926 0 0 1-.93.922h-13.92a.925.925 0 0 1-.93-.921V3.599c0-.509.416-.921.93-.921h13.92c.514 0 .93.412.93.92v9.285zm-16.809 0a.926.926 0 0 1-.93.922h-13.92a.925.925 0 0 1-.93-.921V3.599c0-.509.416-.921.93-.921h13.92c.514 0 .93.412.93.92v9.285zm-16.808 0a.926.926 0 0 1-.93.922h-13.92a.926.926 0 0 1-.93-.921V3.599c0-.509.416-.921.93-.921h13.92c.513 0 .93.412.93.92v9.285zm-16.809 0a.926.926 0 0 1-.93.922H22.96a.926.926 0 0 1-.93-.921V3.599c0-.509.416-.921.93-.921h13.92c.514 0 .93.412.93.92v9.285zm-16.809 0a.926.926 0 0 1-.93.922H6.152a.926.926 0 0 1-.93-.921V3.599c0-.509.417-.921.93-.921h13.92c.514 0 .93.412.93.92v9.285zm82.253-9.921c0-1.327-1.873-1.42-1.873-1.42s-2.352-.217-4.148-.359A4.72 4.72 0 0 0 94.105 0H5.075C2.466 0 .745 2.095.745 4.679L0 11.345v12.48c0 1.414.515 2.68 1.408 3.538.438.422.962.765 1.573.938 1.342.378 9.74 2.699 9.74 2.699h1.314a7.27 7.27 0 0 1-.405-2.38c0-4.063 3.325-7.357 7.427-7.357 4.102 0 7.428 3.294 7.428 7.357A7.27 7.27 0 0 1 28.08 31h45.03a7.27 7.27 0 0 1-.405-2.38c0-4.063 3.325-7.357 7.427-7.357 4.102 0 7.428 3.294 7.428 7.357a7.27 7.27 0 0 1-.405 2.38H97.25c2.607 0 4.72-2.095 4.72-4.679 0-7.838-2.686-20.05-3.839-23.644h3.471l1.488 7.593c.502 0 .909-.403.909-.9l-.746-6.41z" fill="#1A1C2A" mask="url(#1knzf08jub)"/>
        </g>
    </g>
</svg>
