<svg width="111" height="35" viewBox="0 0 111 35" xmlns="http://www.w3.org/2000/svg" xmlns:xlink="http://www.w3.org/1999/xlink">
    <defs>
        <path id="xvdv19fvza" d="M0 0h38v22H0z"/>
        <path id="g5wl0ufa4c" d="M0 35h111V0H0z"/>
    </defs>
    <g fill="none" fill-rule="evenodd">
        <path d="M13 33.163a2.163 2.163 0 1 1 0-4.326 2.163 2.163 0 0 1 0 4.326M13 27a4 4 0 1 0 0 8 4 4 0 0 0 0-8" fill="#1A1C2A"/>
        <path d="M13.5 31a.5.5 0 1 0 0 1 .5.5 0 0 0 0-1M24.5 31a.5.5 0 1 0 0 1 .5.5 0 0 0 0-1M36.5 31a.5.5 0 1 0 0 1 .5.5 0 0 0 0-1M69.5 31a.5.5 0 1 0 0 1 .5.5 0 0 0 0-1M99.5 31a.5.5 0 1 0 0 1 .5.5 0 0 0 0-1" fill="#1A1C2A"/>
        <path d="M25 33.163a2.163 2.163 0 1 1 0-4.326 2.163 2.163 0 0 1 0 4.326M25 27a4 4 0 1 0 0 8 4 4 0 0 0 0-8M36 33.163a2.163 2.163 0 1 1 0-4.326 2.163 2.163 0 0 1 0 4.326M36 27a4 4 0 1 0 0 8 4 4 0 0 0 0-8M69 33.163a2.163 2.163 0 1 1 0-4.326 2.163 2.163 0 0 1 0 4.326M69 27a4 4 0 1 0 0 8 4 4 0 0 0 0-8M100 33.163a2.163 2.163 0 1 1 0-4.326 2.163 2.163 0 0 1 0 4.326M100 27a4 4 0 1 0 0 8 4 4 0 0 0 0-8" fill="#1A1C2A"/>
        <g transform="translate(73 11)">
            <mask id="o88j1p86gb" fill="#fff">
                <use xlink:href="#xvdv19fvza"/>
            </mask>
            <path d="m30.497 9.332-1.986-1.946-.03-5.871h3.96c.791 0 1.49.523 1.722 1.29l1.972 6.527h-5.638zm4.793-7.387A2.742 2.742 0 0 0 32.676 0H21.32v17.83H0l.078.114A5.14 5.14 0 0 1 .802 22h21.094a5.148 5.148 0 0 1-.144-1.191c0-2.827 2.274-5.127 5.069-5.127 2.794 0 5.068 2.3 5.068 5.127 0 .41-.053.808-.144 1.191h2.637l1.033-.076C36.872 21.816 38 20.588 38 19.11v-8.378l-2.71-8.788z" fill="#1A1C2A" mask="url(#o88j1p86gb)"/>
        </g>
        <path d="M61 32h3.082l-.047-.376a5.05 5.05 0 0 1-.04-.609c0-1.074.34-2.074.921-2.903L65 28h-4v4zM95.993 1.493 95 1v8h9a18.91 18.91 0 0 0-8.007-7.507" fill="#1A1C2A"/>
        <mask id="7jeh3lebcd" fill="#fff">
            <use xlink:href="#g5wl0ufa4c"/>
        </mask>
        <path fill="#1A1C2A" mask="url(#7jeh3lebcd)" d="M0 26h92V0H0zM40.077 28.115c.541.829.858 1.827.858 2.9 0 .338-.043.665-.104.985h11.293L60 28H40l.077.115zM29.069 28.115A5.796 5.796 0 0 1 29.736 32h1.506l-.039-.376a5.799 5.799 0 0 1 .728-3.512L32 28h-3l.069.115zM2 32h6.137l-.045-.376a5.26 5.26 0 0 1 .83-3.512L9 28H2v4zM17.07 28.115c.486.829.77 1.827.77 2.9 0 .338-.037.665-.093.985h1.484l-.04-.376a5.73 5.73 0 0 1 .739-3.512L20 28h-3l.07.115z"/>
    </g>
</svg>
