<svg width="38" height="48" viewBox="0 0 38 48" xmlns="http://www.w3.org/2000/svg">
    <g fill="none" fill-rule="evenodd">
        <path d="M26.201 0H7.455C4.716 0 2.487 2.294 2.487 5.109V24h-.485C.896 24 0 24.92 0 26.059v12.484c0 1.138.896 2.059 2.002 2.059h.485v2.29C2.487 45.708 4.716 48 7.455 48h25.579C35.77 48 38 45.71 38 42.891v-30.8L26.201 0zm6.833 44.871H7.454c-1.06 0-1.923-.888-1.923-1.98v-2.289h23.845c1.105 0 2.002-.92 2.002-2.059V26.06c0-1.138-.897-2.059-2.002-2.059H5.53V5.109c0-1.09.863-1.977 1.924-1.977l17.608-.02v6.694c0 1.955 1.543 3.543 3.445 3.543l6.376-.019.072 29.561c0 1.092-.862 1.98-1.922 1.98z" fill="#283378" fill-rule="nonzero"/>
        <text font-family="Gilroy-Extrabold, Gilroy" font-size="14" font-weight="700" letter-spacing="-.179" fill="#FFF">
                    <tspan x="4" y="37">PDF</tspan>
                </text>
    </g>
</svg>
