<svg width="71" height="65" viewBox="0 0 71 65" xmlns="http://www.w3.org/2000/svg">
    <g fill="#FFF" fill-rule="nonzero">
        <path d="M55.753 17.715C53.697 7.532 44.567 0 34.02 0 21.785 0 11.833 9.894 11.833 22.059c0 .497.02 1.006.065 1.544C5.221 24.309 0 29.94 0 36.765 0 44.062 5.973 50 13.313 50h14.791c.817 0 1.48-.659 1.48-1.47 0-.812-.663-1.471-1.48-1.471H13.313c-5.71 0-10.355-4.618-10.355-10.294 0-5.677 4.645-10.295 10.257-10.297.065.011.245.029.31.029.403-.065.85-.177 1.136-.497.287-.324.418-.756.356-1.182-.154-1.06-.225-1.936-.225-2.76 0-10.54 8.626-19.117 19.229-19.117 9.5 0 17.673 7.053 19.013 16.406.104.738.888 1.253 1.695 1.241 7.34 0 13.313 5.938 13.313 13.235S62.069 47.06 54.729 47.06H39.938c-.817 0-1.48.658-1.48 1.47 0 .812.663 1.471 1.48 1.471h14.791C63.702 50 71 42.744 71 33.824c0-8.503-6.633-15.495-15.247-16.11z"/>
        <path d="M33.5 32a1.5 1.5 0 0 0-1.5 1.5v26.379l-3.44-3.438a1.5 1.5 0 0 0-2.121 2.12l6 6.001a1.511 1.511 0 0 0 1.634.324A1.5 1.5 0 0 0 35 63.5v-30a1.5 1.5 0 0 0-1.5-1.5z"/>
        <path d="M41.561 56.439a1.501 1.501 0 0 0-2.121 0l-6.001 6.001a1.502 1.502 0 0 0 0 2.122 1.507 1.507 0 0 0 2.121 0l6.001-6.002a1.502 1.502 0 0 0 0-2.121z"/>
    </g>
</svg>
