<svg width="392" height="516" viewBox="0 0 392 516" xmlns="http://www.w3.org/2000/svg">
    <path d="M0 0h176.468c107.01 0 190.12 29.412 190.12 127.966 0 46.296-25.854 95.589-67.914 111.4v3.186C351.328 256.25 392 295.065 392 363.988 392 468.979 303.309 516 191.16 516H0V0zm171.482 207C227.98 207 253 183.011 253 145.383 253 105.507 226.594 90 172.301 90H117v117h54.482zm9.83 219C245.043 426 278 403.413 278 356.57c0-45.173-32.387-63.57-96.688-63.57H116v133h65.312z" fill="#283378" fill-rule="evenodd"/>
</svg>
