<svg width="65" height="27" viewBox="0 0 65 27" xmlns="http://www.w3.org/2000/svg">
    <g fill="#1A1C2A" fill-rule="evenodd">
        <path d="M52 24.44a3.44 3.44 0 1 1 0-6.88 3.44 3.44 0 0 1 0 6.88M52 15c-3.308 0-6 2.692-6 6s2.692 6 6 6 6-2.692 6-6-2.692-6-6-6M11.5 20a1.5 1.5 0 1 0 0 3 1.5 1.5 0 0 0 0-3"/>
        <path d="M12 24.44a3.44 3.44 0 1 1 0-6.88 3.44 3.44 0 0 1 0 6.88M12 15c-3.308 0-6 2.692-6 6s2.692 6 6 6 6-2.692 6-6-2.692-6-6-6"/>
        <path d="m63.173 18.865-2.53.57 1.406-2.637h1.686l-.562 2.067zm-7.8-7.908h6.043l.575 1.826-.29.736-6.328-2.562zM43.45 8.037c-1.307-.88-3.257-2.074-4.368-2.193v1.992c-2.76-.123-5.948-.262-9.18-.4l-2.34-6.094c1.03.029 2.02.09 2.936.2 8.362.999 14.293 6.559 14.293 6.559l-1.34-.065zm-13.64 2.92c0-1.132 4.567 0 4.567 0s-4.568 1.132-4.568 0zm12.598 9.522c-.744-.014-1.809-.012-3.084-.048-1.276-.038-2.765-.058-4.36-.122l-4.993-.198-4.99-.267c-.784-.041-1.59-.059-2.32-.289a6.188 6.188 0 0 1-1.896-.93 5.874 5.874 0 0 1-1.267-1.256c-.31-.432-.55-.814-.763-1.126l-.649-.988.73.928c.231.293.504.667.832 1.064a6.5 6.5 0 0 0 1.281 1.134c.522.345 1.14.636 1.83.804.685.187 1.438.164 2.242.205l4.994.198 4.991.267c1.592.084 3.077.202 4.351.282 1.273.084 2.333.184 3.076.24l1.166.105-1.17-.003zm-28.61-9.522c0-1.132 4.567 0 4.567 0s-4.568 1.132-4.568 0zm-3.736-4.352L8.011 3.278s2.932-.566 6.912-1.09l-2.011 4.535-2.85-.118zM2.249 11.5l-.364-.246V9.171l1.867-.651a4.97 4.97 0 0 1 3.473 2.477s-4.906-.772-4.976.503zM26.002 1.325l1.005 5.988c-4.92-.21-9.671-.407-12.885-.54l2.107-4.75c3.05-.37 6.547-.68 9.773-.698zM65 18.295s-.21-2.495-.913-4.206c-.703-1.71-1.406-1.568-1.406-1.568l-.98-2.567C60.162 7.602 45.958 5.82 45.958 5.82S36.2.64 32.12.262C18.87-.97 2.81 2.54 2.81 2.54l1.336 1.497-1.827 3.479L.703 8.814v7.2L0 16.94v3.494l4.957 2.29a7.034 7.034 0 0 1-.15-1.435c0-3.815 3.05-6.908 6.81-6.908s6.81 3.093 6.81 6.908c0 .592-.081 1.163-.219 1.711h3.717l2.178-.784h21.015a6.956 6.956 0 0 1-.068-.927c0-3.815 3.048-6.908 6.81-6.908 3.76 0 6.809 3.093 6.809 6.908 0 .207-.013.41-.03.613l4.885-.114L65 20.505l-.632-.784.632-1.426z"/>
        <path d="M52.5 20a1.5 1.5 0 1 0 0 3 1.5 1.5 0 0 0 0-3"/>
    </g>
</svg>
