<svg width="231" height="67" viewBox="0 0 231 67" xmlns="http://www.w3.org/2000/svg" xmlns:xlink="http://www.w3.org/1999/xlink">
    <defs>
        <path id="3kobud26la" d="M0 0h38v39H0z"/>
    </defs>
    <g fill="none" fill-rule="evenodd">
        <path d="M133.83 15.599c-1.834 2.488-2.713 5.931-2.713 10.227v26c0 2.442.034 5.019.082 7.733.095 2.332.253 4.48.47 6.441a38.214 38.214 0 0 0-2.84-.098c-.924 0-1.875.027-2.829.098.204-1.962.333-4.107.385-6.44.106-2.725.165-5.288.165-7.734V24.29c0-2.442-.059-4.985-.165-7.646a88.42 88.42 0 0 0-.385-6.69c1.131.18 2.077.264 2.83.264.46 0 .962-.031 1.47-.085.304-.06.64-.128 1-.188a90.39 90.39 0 0 0-.183 5.668c0 1.044-.212 2.167 1.099.4 1.6-2.15 3.503-3.981 5.488-5.163 1.96-1.218 4.332-1.85 7.126-1.85 1.43 0 2.87.206 4.315.625 1.452.397 2.762 1.12 3.92 2.132 1.125.94 2.07 2.29 2.79 4.045.744 1.668 1.145 3.868 1.145 6.62 0 2.318-.053 4.713-.158 7.192-.117 2.437-.165 24.155-.165 26.919v7.894l.115 1.573a31.79 31.79 0 0 0-2.645-.098c-.872 0-1.74.027-2.58.098l.295-7.893c.164-2.978.244-25.16.244-28.3v-4.951c0-4.122-.785-7.356-2.473-9.58-1.69-2.298-4.037-3.446-6.976-3.446-3.894 0-6.89 1.224-8.827 3.769M173.501 28.193a23.442 23.442 0 0 1 7.37-1.193c2.898 0 5.464.377 7.698 1.115 2.024.601 3.488 1.277 4.431 1.978a33.155 33.155 0 0 0-.853 2.196c-.191.61-.366 1.263-.529 1.936a12.774 12.774 0 0 0-1.2-1.534 11.668 11.668 0 0 0-2.464-2.144c-.919-.699-1.92-1.23-3.052-1.634-1.17-.47-2.422-.693-3.791-.693-2.504 0-4.714.473-6.601 1.457a12.502 12.502 0 0 0-4.526 3.894c-1.123 1.66-1.968 3.626-2.521 5.873-.496 2.167-.74 4.538-.74 7.097 0 5.687 1.197 10.123 3.7 13.181 2.526 3.025 6.21 4.495 10.93 4.495 1.127 0 2.298-.153 3.483-.432 1.16-.336 2.321-.764 3.425-1.272a19.217 19.217 0 0 0 3.1-1.944 17.13 17.13 0 0 0 1.524-1.263c-.082.77-.153 1.531-.19 2.312-1.505 1.17-3.376 2.186-5.623 3.047a19.51 19.51 0 0 1-7.17 1.335c-2.244 0-4.514-.31-6.826-.95a17.106 17.106 0 0 1-6.032-3.287c-1.794-1.564-3.275-3.562-4.414-6.043-1.078-2.443-1.63-5.467-1.63-9.096 0-3.46.58-6.4 1.708-8.845 1.148-2.48 2.621-4.493 4.418-6.049a17.298 17.298 0 0 1 6.375-3.537" fill="#52274E"/>
        <g transform="translate(193 28)">
            <mask id="fckrp5948b" fill="#fff">
                <use xlink:href="#3kobud26la"/>
            </mask>
            <path d="M12.155 1.107C14.468.363 16.75 0 18.995 0c2.309 0 4.587.372 6.849 1.107a16.63 16.63 0 0 1 6.078 3.384c1.8 1.494 3.258 3.507 4.36 6.038C37.409 12.966 38 15.994 38 19.626c0 3.626-.586 6.676-1.718 9.176-1.102 2.478-2.551 4.485-4.36 6.04a16.038 16.038 0 0 1-6.058 3.209 25.17 25.17 0 0 1-6.869.949 25.78 25.78 0 0 1-6.864-.95 16.084 16.084 0 0 1-6.06-3.207c-1.811-1.556-3.28-3.563-4.432-6.04C.545 26.302 0 23.254 0 19.625c0-3.632.55-6.653 1.639-9.097C2.79 7.995 4.269 5.985 6.07 4.491c1.824-1.574 3.85-2.703 6.084-3.384m.485 35.361c1.76 1.055 3.888 1.562 6.355 1.562 2.478 0 4.6-.507 6.35-1.562a11.97 11.97 0 0 0 4.14-4.168c1.017-1.76 1.715-3.74 2.106-5.936.448-2.165.662-4.41.662-6.738 0-2.337-.214-4.579-.662-6.744-.39-2.194-1.09-4.14-2.106-5.855-1.037-1.784-2.41-3.197-4.14-4.238-1.75-1.063-3.872-1.574-6.35-1.574-2.467 0-4.594.511-6.355 1.574a11.691 11.691 0 0 0-4.123 4.238c-1.018 1.709-1.746 3.664-2.19 5.855a38.088 38.088 0 0 0-.586 6.744c0 2.328.197 4.584.586 6.738.444 2.188 1.172 4.182 2.19 5.936a11.97 11.97 0 0 0 4.123 4.168" fill="#52274E" mask="url(#fckrp5948b)"/>
        </g>
        <path d="M62.01 28.335c2.026.832 3.71 1.98 5.043 3.423 1.333 1.391 2.309 3.059 2.933 4.969.675 1.935 1.014 4.01 1.014 6.225 0 .523-.022 1.066-.078 1.584 0 .286-.01.582-.026.886l-8.035-.15c-2.873-.054-5.77-.082-8.693-.082-1.794 0-3.583.028-5.382.082l-5.28.165c-.296.011-.597.259-.651.556-.074.344-.102.81-.102 1.365v1.06c0 2.183.312 4.259.935 6.18.673 1.927 1.645 3.632 2.898 5.057 1.257 1.38 2.81 2.502 4.613 3.355 1.835.804 3.947 1.202 6.292 1.202 1.134 0 2.31-.138 3.503-.43a24.75 24.75 0 0 0 3.446-1.268 18.656 18.656 0 0 0 3.121-1.951 16.06 16.06 0 0 0 1.574-1.292l-.213 2.325c-1.516 1.18-3.402 2.2-5.67 3.064A19.8 19.8 0 0 1 56.03 66c-2.855 0-5.44-.421-7.8-1.263-2.296-.888-4.284-2.138-6.002-3.763-1.667-1.679-2.959-3.628-3.898-5.882-.887-2.25-1.33-4.684-1.33-7.326 0-6.587 1.543-11.661 4.542-15.304C44.578 28.845 48.985 27 54.896 27c2.793 0 5.166.455 7.114 1.335m-18.176 9.853c-.44 1.68-.718 3.28-.835 4.793a.688.688 0 0 0 .667.74l5.2.174c1.848.049 3.637.08 5.379.08 1.792 0 3.609-.031 5.457-.08l5.362-.174a.694.694 0 0 0 .665-.692c0-1.5-.133-3.076-.408-4.752a13.877 13.877 0 0 0-1.531-4.785c-.756-1.52-1.832-2.763-3.218-3.757-1.448-1.033-3.308-1.52-5.514-1.52-2.115 0-3.958.493-5.506 1.507a13.021 13.021 0 0 0-3.598 3.709c-.907 1.423-1.616 3.02-2.12 4.757M114.003 28.335c2.027.832 3.71 1.98 5.04 3.423 1.334 1.391 2.312 3.059 2.93 4.969.675 1.935 1.027 4.01 1.027 6.225 0 .523-.032 1.066-.088 1.584 0 .286-.007.582-.026.886l-8.03-.15a463.352 463.352 0 0 0-8.695-.082c-1.795 0-3.58.028-5.377.082l-5.274.165c-.304.011-.6.259-.656.556-.072.344-.098.81-.098 1.365v1.06c0 2.183.309 4.259.927 6.18.677 1.927 1.647 3.632 2.899 5.057 1.259 1.38 2.808 2.502 4.618 3.355 1.833.804 3.934 1.202 6.291 1.202 1.128 0 2.307-.138 3.501-.43a25.622 25.622 0 0 0 3.446-1.268 18.71 18.71 0 0 0 3.115-1.951 16.388 16.388 0 0 0 1.573-1.292l-.213 2.325c-1.516 1.18-3.403 2.2-5.668 3.064a19.793 19.793 0 0 1-7.218 1.34c-2.855 0-5.443-.421-7.792-1.263-2.302-.888-4.29-2.138-6.013-3.763a18.166 18.166 0 0 1-3.888-5.882c-.89-2.25-1.334-4.684-1.334-7.326 0-6.587 1.542-11.661 4.545-15.304 3.03-3.617 7.44-5.462 13.347-5.462 2.792 0 5.164.455 7.111 1.335m-18.162 9.853c-.453 1.68-.736 3.28-.84 4.793a.69.69 0 0 0 .668.74l5.191.174c1.852.049 3.647.08 5.38.08 1.792 0 3.614-.031 5.46-.08l5.354-.174a.7.7 0 0 0 .68-.692c0-1.5-.142-3.076-.417-4.752a14.117 14.117 0 0 0-1.53-4.785 10.129 10.129 0 0 0-3.226-3.757c-1.446-1.033-3.305-1.52-5.507-1.52-2.106 0-3.96.493-5.493 1.507a13.103 13.103 0 0 0-3.617 3.709 18.52 18.52 0 0 0-2.103 4.757" fill="#52274E"/>
        <path d="M75.71 28.102c.497.043 1.023.067 1.524.067.496 0 1.018-.024 1.513-.067l.711-.102-.318 6.451a212.37 212.37 0 0 0-.126 7.264c0 4.718.02 8.814.065 12.295.037 3.442.081 6.258.115 8.986a.71.71 0 0 0 .692.687c2.849 0 5.585-.014 8.199-.057 2.344-.066 3.25-.254 5.915-.56-.053.312-.08.877-.08 1.144 0 .245.025.514.077.782a148.413 148.413 0 0 0-4.641-.078H79.82c-1.545 0-3.15.03-4.82.086.103-2.074.189-4.18.259-6.317.119-2.403.18-4.844.18-7.32v-9.648c0-2.48-.061-4.895-.18-7.264-.07-2.121-.156-4.27-.259-6.451M24.402 64.633C22.317 65.543 20.054 66 17.59 66c-2.455 0-4.648-.496-6.616-1.502-1.948-1.064-3.389-2.317-4.383-3.75-.226-.33-.333.569-.769 1.068-1.546 1.795-5.688.825-5.645-.643.105-1.806.183-3.708.238-5.726.056-2.062.078-4.154.078-6.274.052-2.115.08-4.068.08-5.871V28.954c0-1.797-.028-3.747-.08-5.866 0-1.072 0-1.509-.016-1.952-.014-.436-.032-.872-.062-1.894C.36 17.17.282 5.84.177 3.99A108.076 108.076 0 0 0 0 0c1.14.176 2.085.264 2.837.264.606 0 1.26-.028 1.917-.088L5.944 0c-.11 1.036-.21 2.446-.291 4.223-.105 2.28-.187 11.787-.237 14.66l-.16 8.718c-.055 2.954.139 10.387.232 10.21 1.977-3.929 4.734-6.54 6.8-7.791 2.06-1.248 4.452-1.882 7.214-1.882 2.671 0 4.96.518 6.858 1.512 1.936.955 3.534 2.247 4.794 3.852 1.272 1.614 2.219 3.522 2.835 5.71.67 2.152 1.011 4.452 1.011 6.865 0 2.998-.471 5.722-1.396 8.17-.879 2.457-2.113 4.581-3.698 6.354a15.98 15.98 0 0 1-5.504 4.032m-1.39-33.694a8.997 8.997 0 0 0-4.3-1.087c-1.74 0-3.416.323-5.044.983-1.622.624-3.01 1.684-4.193 3.168-1.186 1.438-2.119 3.311-2.83 5.608-.664 2.253-.984 5.027-.984 8.287 0 10.59 4.005 16.328 12.33 16.328a9.403 9.403 0 0 0 4.916-1.349c1.488-.943 2.75-2.276 3.804-3.948 1.115-1.683 1.954-3.67 2.558-5.964.603-2.296.9-4.839.9-7.639 0-2.446-.326-4.611-.995-6.516-.599-1.934-1.426-3.554-2.5-4.88-1.018-1.323-2.224-2.317-3.661-2.991M161.831 23.335v2.155c0 .297-.016.587-.035.887-.018.29-.034.583-.056.88.167-.042.31-.063.42-.063.094 0 .235.02.405.064-.06-.608-.08-1.211-.08-1.817v-.88h.4c.38.455.727.908 1.055 1.343.337.453.66.9.973 1.354.208-.043.372-.064.487-.064.068 0 .141.013.217.025l.261.039v-.064a4.612 4.612 0 0 1-.469-.494 46.258 46.258 0 0 1-.585-.73c-.21-.27-.418-.534-.616-.804a11.236 11.236 0 0 0-.558-.707c.167-.01.34-.05.533-.115a2.16 2.16 0 0 0 .565-.29c.18-.132.319-.3.443-.489.12-.195.186-.416.186-.673 0-.22-.038-.407-.127-.552-.084-.163-.2-.29-.337-.392a1.494 1.494 0 0 0-.507-.244 2.503 2.503 0 0 0-.613-.07c-.168 0-.343.008-.512.035-.168.017-.34.03-.507.03-.18 0-.347-.005-.528-.013-.167-.02-.34-.036-.506-.051.023.232.05.504.065.82.016.298.026.594.026.88m.654.867V23.19c0-.2.01-.396.02-.595.025-.208.038-.4.06-.595.12-.014.255-.033.398-.038.15-.013.302-.028.461-.028.355 0 .638.09.85.28.213.178.324.443.324.77 0 .232-.043.42-.124.592-.089.16-.2.29-.358.395a1.57 1.57 0 0 1-.504.22 2.595 2.595 0 0 1-.927.05.629.629 0 0 1-.2-.038M159 24.52a4.498 4.498 0 0 0 1.31 3.193c.406.405.89.72 1.43.946.557.23 1.145.341 1.764.341.618 0 1.199-.111 1.746-.34a4.304 4.304 0 0 0 1.436-.947c.404-.403.73-.88.961-1.425.24-.55.353-1.134.353-1.768 0-.628-.112-1.208-.353-1.753a4.4 4.4 0 0 0-.96-1.437 4.397 4.397 0 0 0-1.437-.975 4.527 4.527 0 0 0-3.51 0 4.54 4.54 0 0 0-2.387 2.412A4.43 4.43 0 0 0 159 24.52m.529 0c0-.55.104-1.077.303-1.564a4.15 4.15 0 0 1 .838-1.287 4.04 4.04 0 0 1 1.275-.873 3.92 3.92 0 0 1 3.12 0c.484.21.904.503 1.254.873.365.365.639.791.841 1.287.213.487.315 1.014.315 1.564 0 .553-.102 1.081-.315 1.573a3.863 3.863 0 0 1-.84 1.292c-.35.36-.771.652-1.256.87a3.927 3.927 0 0 1-1.56.318 3.87 3.87 0 0 1-1.56-.318 4.334 4.334 0 0 1-1.274-.87 4.159 4.159 0 0 1-.838-1.292 4.18 4.18 0 0 1-.303-1.573" fill="#52274E"/>
    </g>
</svg>
