<svg width="50" height="29" viewBox="0 0 50 29" xmlns="http://www.w3.org/2000/svg">
    <path d="M0 18.243V4.215c0-1.324.764-2.357 2.294-3.1C3.825.37 5.926 0 8.6 0c2.77 0 4.902.349 6.395 1.048 1.495.7 2.242 1.704 2.242 3.014v13.475c0 1.564.583 2.676 1.749 3.338 1.166.66 3.05.992 5.65.992 2.574 0 4.438-.337 5.593-1.011 1.153-.674 1.732-1.78 1.732-3.319V4.062c0-1.31.738-2.315 2.222-3.014C35.662.348 37.802 0 40.594 0c2.696 0 4.806.37 6.323 1.115 1.519.743 2.278 1.776 2.278 3.1v14.028c0 3.401-2.144 6.045-6.431 7.93C38.474 28.057 32.43 29 24.634 29c-3.888 0-7.348-.234-10.387-.7-3.036-.466-5.635-1.173-7.797-2.119C2.15 24.304 0 21.657 0 18.243" fill="#E42629" fill-rule="evenodd"/>
</svg>
