<svg width="225" height="95" viewBox="0 0 225 95" xmlns="http://www.w3.org/2000/svg">
    <g fill-rule="nonzero" fill="none">
        <path d="M119.915 39.129h9.975S122.796 13.32 73.827 13.32c-48.968 0-57.877 22.243-56.063 34.907 1.707 12.132 13.71 33.842 68.012 33.47H225V95l-141.785-.532S-.319 95.585 0 47.43C.374-5.515 80.122.178 80.122.178s60.49 1.065 70.038 46.4h-30.245v-7.45z" fill="#0D4F9E"/>
        <path fill="#0D4F9E" d="M20 40h13v6H20zM61 40h31v6H61z"/>
        <path d="M33 58.093V33.414c0-2.33 1.331-4.13 4.047-5.454C39.762 26.636 43.489 26 48.174 26c4.899 0 8.68.636 11.288 1.854 2.662 1.218 3.94 3.018 3.94 5.296v23.725c0 2.754 1.012 4.714 3.088 5.879 2.077 1.165 5.378 1.748 10.01 1.748 4.579 0 7.827-.583 9.903-1.801 2.024-1.165 3.088-3.125 3.088-5.826V33.15c0-2.33 1.332-4.078 3.94-5.296 2.61-1.218 6.39-1.854 11.341-1.854 4.792 0 8.52.636 11.181 1.96 2.663 1.323 4.047 3.124 4.047 5.454v24.68c0 5.984-3.78 10.644-11.394 13.928C100.992 75.358 90.343 77 76.553 77c-6.868 0-12.991-.424-18.369-1.218-5.377-.794-9.956-2.065-13.79-3.707C36.834 68.738 33 64.13 33 58.093M139.664 62.632l4.257-8.21c.327-.738.982-1.264 1.91-1.685.928-.421 2.02-.58 3.33-.58 1.8 0 3.22.211 4.256.685 1.037.474 1.583 1.105 1.583 1.895v.42c-.055.159-.11.264-.11.317 0 .105-.054.21-.108.315-.055.106-.11.264-.219.369l-7.968 12.947-.491.79c-1.365 2.21-2.729 3.684-4.148 4.42-.982.527-2.292.896-3.875 1.211-1.637.316-3.384.474-5.24.474-2.4 0-4.256-.263-5.62-.737-1.365-.526-2.02-1.21-2.02-2.105 0-.632.273-1.158.873-1.526.546-.369 1.528-.632 2.893-.843h3.001l.546-.052c.218-.053.437-.105.546-.263.109-.158.218-.316.218-.527 0-.315-.273-.894-.818-1.684l-.328-.526-7.64-11.263c-.055-.106-.165-.21-.165-.316-.054-.053-.109-.21-.218-.474l-.109-.79c0-.841.546-1.526 1.692-2.052.6-.263 1.255-.474 1.965-.631.71-.158 1.528-.211 2.456-.211 1.419 0 2.565.158 3.383.526.82.369 1.474 1 1.965 1.948l4.203 8.158zM187.895 64.802l.053.84.052.892c0 .682-.418 1.259-1.202 1.626-.837.368-1.987.578-3.555.578s-2.823-.21-3.712-.63c-.889-.42-1.464-1.102-1.725-2.047-1.202.997-2.718 1.732-4.496 2.204-1.777.473-3.92.735-6.325.735-3.137 0-5.594-.472-7.371-1.417-1.725-.945-2.614-2.256-2.614-3.936 0-1.68.889-2.886 2.614-3.673 1.725-.787 4.81-1.365 9.148-1.68l2.196-.157c4.025-.262 6.064-.787 6.064-1.68 0-.472-.314-.786-.941-1.049-.627-.262-1.568-.367-2.77-.367-.994 0-1.883.052-2.562.157a9.5 9.5 0 0 0-1.934.473l-1.098.472c-1.778.84-3.45 1.207-5.071 1.207-.837 0-1.568-.21-2.196-.63-.68-.42-.993-.892-.993-1.417 0-1.207 1.307-2.256 3.92-3.044 2.615-.84 5.96-1.259 10.09-1.259 2.405 0 4.548.105 6.43.367.993.158 1.882.263 2.562.42.68.158 1.359.368 1.934.63 1.307.525 2.248 1.102 2.823 1.784.261.315.47.735.575 1.207.157.472.209.997.209 1.68v7.714h-.105zm-11.03-3.831c-.314.105-.732.157-1.202.262-.314.053-.628.105-.837.158l-2.77.315c-1.464.157-2.51.314-3.032.577-.575.262-.837.63-.837 1.102 0 .472.262.892.837 1.154.575.263 1.411.42 2.457.42 1.934 0 3.293-.262 4.182-.735.836-.524 1.307-1.311 1.307-2.466l-.053-.472-.052-.315zM205.363 65.733c0 .97-.523 1.787-1.57 2.348-1.048.613-2.41.919-4.138.919-1.728 0-3.09-.306-4.136-.919-1.048-.613-1.519-1.43-1.519-2.45V55.318c0-1.02.419-1.786 1.31-2.348.89-.51 2.146-.817 3.874-.817 1.623 0 2.933.255 3.875.766.943.51 1.414 1.225 1.414 2.195a11.496 11.496 0 0 1 4.19-2.348c1.622-.51 3.612-.766 5.916-.766 2.095 0 3.928.255 5.551.766 1.623.51 2.828 1.225 3.56 2.144.472.51.786 1.174.996 1.94.105.357.157.817.21 1.378.052.562.104 1.225.104 1.991v5.105c0 1.174-.471 2.093-1.466 2.655-.943.613-2.357.919-4.19.919-1.832 0-3.246-.306-4.293-.919-.995-.613-1.519-1.532-1.519-2.655V60.27c0-1.225-.314-2.042-.89-2.552-.576-.46-1.571-.715-2.985-.715s-2.461.255-3.194.817c-.733.561-1.1 1.378-1.1 2.45v5.463z" fill="#E52629"/>
        <g fill="#FFF">
            <path d="M124.966 83.791v3.898c0 .509.107.904.268 1.187.16.282.429.395.75.395.323 0 .537-.113.752-.395.16-.283.268-.678.268-1.187v-3.898h.965v3.898c0 .622-.107 1.13-.268 1.582-.16.452-.429.735-.697.96-.268.227-.644.34-1.02.34-.59 0-1.072-.226-1.448-.735-.375-.452-.536-1.186-.536-2.09v-3.899h.966v-.056zM129.471 85.26l1.073 3.56.966-3.56h1.072l-2.36 7.74h-1.073l.859-2.655-1.61-5.085zM135.425 85.486c.215.226.376.508.483.847V85.26h.966v5.254h-.966v-1.073a2.151 2.151 0 0 1-.483.847c-.214.226-.536.34-.858.34-.322 0-.644-.114-.858-.34a1.748 1.748 0 0 1-.59-.904c-.161-.395-.215-.904-.215-1.412 0-.509.054-1.017.215-1.413.16-.395.375-.734.59-.904.268-.226.536-.339.858-.339.322 0 .59 0 .858.17zm-1.287 1.243c-.161.282-.268.621-.268 1.13 0 .508.107.847.268 1.13.16.282.429.395.75.395.323 0 .537-.113.752-.395.214-.283.268-.622.268-1.13 0-.452-.107-.848-.268-1.13-.161-.283-.43-.396-.751-.396-.322 0-.59.17-.751.396zM141.165 85.768c.268.396.375.96.375 1.695v3.051h-.965v-2.881c0-.396-.054-.735-.215-.96a.753.753 0 0 0-.644-.34c-.268 0-.482.113-.697.396-.16.226-.268.621-.268 1.073v2.769h-.966v-5.255h.966v1.074c.107-.34.268-.622.483-.848.214-.226.482-.282.804-.282.483-.057.859.113 1.127.508zM144.92 84.864v1.752h1.77v1.017h-1.77v1.808h1.984v1.073h-2.95v-6.667h2.95v1.074h-1.984zM148.62 83.508v7.006h-.965v-7.006zM153.126 88.141h-2.842c0 .452.107.791.268 1.017.16.226.375.34.643.34.215 0 .43-.057.59-.227.161-.17.269-.339.269-.621h1.019a2.88 2.88 0 0 1-.322.96c-.161.283-.376.509-.644.678-.268.17-.536.226-.858.226-.375 0-.697-.113-1.02-.339-.267-.226-.536-.508-.696-.904a3.872 3.872 0 0 1-.269-1.412c0-.509.108-1.017.269-1.413.16-.395.375-.734.697-.904.268-.226.644-.339 1.019-.339.376 0 .697.113 1.02.34.267.225.482.508.643.903.16.396.214.791.214 1.3.054.056.054.226 0 .395zm-1.18-1.582a.753.753 0 0 0-.643-.339c-.269 0-.483.113-.698.34-.16.225-.268.564-.321.96h1.877c0-.396-.054-.735-.215-.96zM156.13 90.514l-1.287-2.316v2.316h-.966v-7.006h.966v3.955l1.287-2.147h1.18l-1.609 2.6 1.663 2.655h-1.234zM159.885 89.328v1.13h-.536c-.43 0-.751-.17-1.02-.452-.214-.283-.321-.735-.321-1.413v-2.26h-.537v-1.13h.537v-1.299h.965v1.3h.858v1.13h-.858v2.316c0 .226.054.452.107.508.054.113.215.17.376.17h.43zM162.138 85.486c.214-.17.483-.283.805-.283v1.413h-.269c-.697 0-1.072.452-1.072 1.356v2.542h-.966V85.26h.966v1.017c.107-.34.321-.622.536-.791zM163.586 83.226c.107-.113.268-.226.43-.226a.48.48 0 0 1 .428.226c.108.113.161.282.161.508 0 .226-.053.396-.16.509-.108.113-.269.226-.43.226a.48.48 0 0 1-.429-.226c-.107-.113-.16-.283-.16-.509-.054-.226 0-.395.16-.508zm.912 2.034v5.254h-.965V85.26h.965zM167.663 90.514l-1.288-2.316v2.316h-.965v-7.006h.965v3.955l1.288-2.147h1.18l-1.61 2.6 1.664 2.655h-1.234zM174.1 89.61c-.108.283-.322.509-.537.678-.268.17-.536.283-.912.283-.375 0-.643-.057-.965-.226a1.901 1.901 0 0 1-.644-.678 2.253 2.253 0 0 1-.268-1.074h1.073a.96.96 0 0 0 .268.678c.16.17.322.283.536.283.215 0 .376-.057.483-.226a.99.99 0 0 0 .161-.565c0-.226-.054-.396-.107-.509l-.322-.339c-.161-.056-.322-.17-.536-.282-.322-.113-.537-.283-.751-.396-.215-.113-.376-.339-.483-.565-.161-.282-.215-.621-.215-1.017 0-.565.161-1.017.483-1.356.322-.339.697-.508 1.234-.508.536 0 .965.17 1.233.508.322.34.483.791.537 1.356h-1.073c-.054-.226-.107-.452-.215-.565-.107-.17-.268-.226-.482-.226a.592.592 0 0 0-.43.17c-.107.113-.16.339-.16.565 0 .17.053.339.107.508l.322.34.536.282c.322.17.59.282.751.452.161.17.376.339.483.621.16.283.214.622.214 1.017-.16.17-.214.509-.321.791zM177.372 85.486c.214.226.375.508.482.847V85.26h.966v5.254h-.966v-1.073a2.151 2.151 0 0 1-.482.847c-.215.226-.537.34-.859.34-.321 0-.643-.114-.858-.34a1.748 1.748 0 0 1-.59-.904c-.16-.395-.214-.904-.214-1.412 0-.509.053-1.017.214-1.413.161-.395.376-.734.59-.904.268-.226.537-.339.858-.339.322 0 .59 0 .859.17zm-1.288 1.243c-.16.282-.268.621-.268 1.13 0 .508.107.847.268 1.13.161.282.43.395.751.395.322 0 .537-.113.751-.395.215-.283.268-.622.268-1.13 0-.452-.107-.848-.268-1.13-.16-.283-.429-.396-.75-.396-.323 0-.59.17-.752.396zM183.111 85.768c.268.396.376.96.376 1.695v3.051h-.966v-2.881c0-.396-.054-.735-.214-.96a.753.753 0 0 0-.644-.34c-.268 0-.483.113-.697.396-.161.226-.269.621-.269 1.073v2.769h-.965v-5.255h.965v1.074c.108-.34.269-.622.483-.848.215-.226.483-.282.805-.282.482-.057.858.113 1.126.508zM185.203 89.102v1.412h-1.073v-1.412zM189.065 89.158l.966-3.898h1.072l-1.448 5.254h-1.18l-1.448-5.254h1.073zM195.287 88.141h-2.843c0 .452.108.791.269 1.017.16.226.375.34.643.34.215 0 .43-.057.59-.227.161-.17.269-.339.269-.621h1.019a2.88 2.88 0 0 1-.322.96c-.161.283-.376.509-.644.678-.268.17-.536.226-.858.226-.376 0-.697-.113-1.02-.339-.267-.226-.536-.508-.697-.904a3.872 3.872 0 0 1-.268-1.412c0-.509.108-1.017.268-1.413.161-.395.376-.734.698-.904.268-.226.643-.339 1.019-.339.375 0 .697.113 1.02.34.267.225.482.508.643.903.16.396.214.791.214 1.3v.395zm-1.233-1.582a.753.753 0 0 0-.644-.339c-.268 0-.483.113-.697.34-.161.225-.269.564-.322.96h1.877a1.347 1.347 0 0 0-.214-.96zM200.866 83.791v1.073h-1.341v5.594h-.966v-5.594h-1.34v-1.073zM201.51 83.226c.107-.113.268-.226.429-.226a.48.48 0 0 1 .429.226c.107.113.16.282.16.508 0 .226-.053.396-.16.509-.107.113-.268.226-.43.226a.48.48 0 0 1-.428-.226c-.108-.113-.161-.283-.161-.509-.054-.226.053-.395.16-.508zm.911 2.034v5.254h-.965V85.26h.965zM206.284 85.712c.321.339.536.847.643 1.469h-1.019a1.94 1.94 0 0 0-.268-.678c-.107-.17-.322-.226-.59-.226-.268 0-.483.113-.644.395-.16.283-.268.622-.268 1.13 0 .509.107.904.268 1.13.161.283.376.396.644.396.214 0 .429-.057.59-.226a.96.96 0 0 0 .268-.678h1.02c-.108.621-.269 1.13-.644 1.469-.376.339-.751.565-1.234.565-.376 0-.698-.113-1.02-.34-.268-.225-.536-.508-.697-.903a3.872 3.872 0 0 1-.268-1.413c0-.508.107-1.017.268-1.412.161-.396.376-.735.698-.904.268-.226.643-.34 1.019-.34.536.057.912.227 1.234.566zM208.483 89.102v1.412h-1.073v-1.412zM213.632 89.158h-1.984l-.376 1.356h-1.02l1.825-6.61h1.126l1.824 6.61h-1.02l-.375-1.356zm-.268-1.017-.751-2.825-.75 2.825h1.501zM216.368 89.102v1.412h-1.073v-1.412zM220.284 89.61c-.108.283-.322.509-.537.678-.268.17-.536.283-.912.283-.375 0-.643-.057-.965-.226a1.901 1.901 0 0 1-.644-.678 2.253 2.253 0 0 1-.268-1.074h1.073a.96.96 0 0 0 .268.678c.16.17.322.283.536.283.215 0 .376-.057.483-.226a.99.99 0 0 0 .16-.565c0-.226-.053-.396-.106-.509l-.322-.339c-.161-.056-.322-.17-.537-.282-.321-.113-.536-.283-.75-.396-.215-.113-.376-.339-.483-.565-.161-.282-.215-.621-.215-1.017 0-.565.161-1.017.483-1.356.322-.339.697-.508 1.234-.508.536 0 .965.17 1.233.508.322.34.483.791.537 1.356h-1.073c-.054-.226-.107-.452-.215-.565-.107-.17-.268-.226-.482-.226a.592.592 0 0 0-.43.17c-.107.113-.16.339-.16.565 0 .17.053.339.107.508l.322.34.536.282c.322.17.59.282.751.452.161.17.376.339.483.621.16.283.214.622.214 1.017-.16.17-.214.509-.321.791zm-.59 1.582c.16.17.268.396.268.791 0 .339-.108.622-.269.735-.16.113-.375.226-.643.226h-.912v-.735h.805c.214 0 .375-.113.375-.339 0-.113-.054-.17-.107-.226a.4.4 0 0 0-.268-.113h-.483v-1.186h.59v.565c.214.056.429.113.643.282zM222 89.102v1.412h-1.073v-1.412z"/>
        </g>
    </g>
</svg>
