<svg width="282" height="282" viewBox="0 0 282 282" xmlns="http://www.w3.org/2000/svg" xmlns:xlink="http://www.w3.org/1999/xlink">
    <defs>
        <path id="zb2xryinuc" d="M67.908 0 6.535 14.798 0 16.86l1.89 30.104 8.454 6.44V79h66.653V53.404L98 22.194"/>
        <path id="r2gho6ww1e" d="M67.908 0 6.535 14.798 0 16.86l1.89 30.104 8.454 6.44V79h66.653V53.404L98 22.194"/>
        <path id="5m34r80xdg" d="M67.908 0 6.535 14.798 0 16.86l1.89 30.104 8.454 6.44V79h66.653V53.404L98 22.194"/>
        <filter x="-89.2%" y="-92.3%" width="278.5%" height="278.5%" filterUnits="objectBoundingBox" id="jwfcuxq19a">
            <feMorphology radius="12" in="SourceAlpha" result="shadowSpreadOuter1"/>
            <feOffset dy="-4" in="shadowSpreadOuter1" result="shadowOffsetOuter1"/>
            <feGaussianBlur stdDeviation="50" in="shadowOffsetOuter1" result="shadowBlurOuter1"/>
            <feColorMatrix values="0 0 0 0 0 0 0 0 0 0 0 0 0 0 0 0 0 0 0.5 0" in="shadowBlurOuter1"/>
        </filter>
        <circle id="gm541bcukb" cx="65" cy="65" r="65"/>
    </defs>
    <g fill="none" fill-rule="evenodd">
        <g transform="translate(76 80)">
            <use fill="#000" filter="url(#jwfcuxq19a)" xlink:href="#gm541bcukb"/>
            <use fill="#FFF" xlink:href="#gm541bcukb"/>
        </g>
        <g transform="translate(94 102)">
            <mask id="daeigkttjd" fill="#fff">
                <use xlink:href="#zb2xryinuc"/>
            </mask>
            <path d="M67.604 15.788c-2.577-.708-3.03-3.32-3.03-3.32.238.665 2.079.676 3.765.587 1.686-.088 2.897 1.925 2.897 1.925s-1.056 1.516-3.632.808m15.347-2.401c-1.642-.2-3.323-.066-4.981-.166-3.804-.221-7.248-1.278-10.084-4.044-1.062-1.04-2.549-1.222-3.975-.415-.603.343-1.217.664-1.913 1.046-1.94-2.738-4.412-2.677-7.077-1.665-1.277.487-2.554.962-3.815 1.488-1.984.83-3.941.769-5.865-.155-.89-.426-1.747-.924-3.041-1.615.602.658.868 1.012 1.194 1.294 3.135 2.727 6.596 2.882 10.322 1.383.918-.37 1.935-.614 2.913-.636.498-.011 1.007.603 1.51.935-.431.337-.818.763-1.3.996-.47.226-1.072.166-1.547.381-2.627 1.19-5.407 2.152-7.796 3.718-2.665 1.748-3.914 4.586-4.085 7.827 1.99-3.43 3.997-6.77 9.133-6.55-5.556 6.44-5.695 13.454-3.605 21.132.758-1.2 1.322-2.085 1.968-3.12 3.417 4.254 6.397 8.525 8.116 13.525.553 1.61.968 3.325 1.078 5.012.227 3.519-1.144 5.36-4.56 6.19-6.972 1.704-12.927-.497-17.985-5.233-3.395-3.175-3.594-6.61-.719-10.317 1.813-2.334 3.964-4.414 6.015-6.56 2.947-3.082 2.632-6.002-1.111-8.11-2.471-1.394-5.037-2.677-7.685-3.695-8.22-3.164-16.862-4.381-25.575-5.206-2.576-.243-5.164-.348-7.746-.52 3.738 1.853 7.563 3.458 9.316 7.568 1.824 4.27.15 8.076-2.068 12.115 7.923-4.2 15.856-6.987 24.641-6.24-5.44.818-10.565 2.622-15.502 4.967-4.893 2.324-9.636 4.907-14.407 8.337 2.974-.061 5.418.105 7.314 1.958 1.918 1.88 2.068 4.37 2.007 6.782 2.322-2.66 4.483-5.416 6.938-7.877 2.422-2.429 5.125-4.58 8.304-5.676-5.578 5.958-11.206 11.96-16.829 17.967.1.15.2.305.299.454 4.163-1.803 8.31-3.485 11.914 1.261.016-.077.038-.144.055-.215.337-1.345 2.245-8.608 4.766-12.038.78-1.084 1.487-2.135 2.305-3.114 0 0-7.264 14.88-4.948 22.171.265-.105.525-.22.78-.343 2.117-.818 3.665-.442 4.583.011.354.25.685.504.99.68 0-.84-.006-1.72-.012-2.61.144-7.584 1.78-10.942 1.78-10.942-.071.642-.17 1.162-.187 1.687-.105 3.38-.42 6.766-.238 10.129.066 1.195.138 2.025.287 2.655 5.7-1.87 12.219-4.541 18.775-7.783 3.5-1.732 7.21-3.142 10.72-4.282.31-.807.597-1.637.835-2.5.326-1.178.531-2.395.79-3.596.216.067.427.133.642.205a26.51 26.51 0 0 1 .32 5.09A119.444 119.444 0 0 1 75.599 54.5c-.459-5.488-2.61-10.799-6.667-15.882-1.465-1.837-3.616-3.131-5.02-5.001-1.04-1.383-1.747-3.242-1.94-4.968-.239-2.096 1.696-3.645 4.074-3.866 2.305-.216 5.263 1.394 5.738 3.164l.056.15c.304.73.492 1.985.928 2.08 1.184.254 2.472.054 3.71-.05 1.228-.106 2.09-.698 1.775-2.08-.31-1.35-1.283-1.201-2.389-.99-.812.149-2.123.231-2.476-.222-1.366-1.765-2.521-3.718-3.583-5.687-.553-1.023-.083-1.864 1.178-2.008.763-.088 1.548-.028 2.3-.16 1-.177 2.045-.332 2.952-.747 1.808-.819 3.477-1.693 5.534-.509.525.304 1.841-.055 2.322-.559.62-.647 1.078-1.775.99-2.638-.034-.47-1.338-1.04-2.129-1.14" fill="#FF8300" mask="url(#daeigkttjd)"/>
        </g>
        <g transform="translate(94 102)">
            <mask id="ttwzzff5xf" fill="#fff">
                <use xlink:href="#r2gho6ww1e"/>
            </mask>
            <path d="M51.272 67.079C39.47 72.92 21.014 78.978 14.015 79.309l.238 4.99c6.894-.326 25.536-5.963 39.236-12.745 11.151-5.52 25.155-7.722 25.294-7.744l-.758-4.94c-.608.094-14.894 2.34-26.753 8.209" fill="#FF8300" mask="url(#ttwzzff5xf)"/>
        </g>
        <g transform="translate(94 102)">
            <mask id="pkjkn0zmzh" fill="#fff">
                <use xlink:href="#5m34r80xdg"/>
            </mask>
            <path d="M50.63 76.804C38.215 82.95 25.858 87.12 19.14 87.442l.238 4.99c8.917-.421 23.137-6.036 33.464-11.153 11.152-5.52 25.156-7.728 25.294-7.744l-.758-4.94c-.602.094-14.888 2.34-26.747 8.209" fill="#FF8300" mask="url(#pkjkn0zmzh)"/>
        </g>
    </g>
</svg>
