<svg width="62" height="62" viewBox="0 0 62 62" xmlns="http://www.w3.org/2000/svg">
    <g fill="#717171" fill-rule="evenodd">
        <path d="M51 23H11v-4.882l20-10 20 10V23zM41 52V30H21v22H11V25h40v27H41zm-18 0h16V32H23v20zM6.553 18.105l.894 1.79L9 19.118V54h44V19.118l1.553.777.894-1.79L31 5.882 6.553 18.105z"/>
        <path d="M34 16c0 1.654-1.346 3-3 3s-3-1.346-3-3 1.346-3 3-3 3 1.346 3 3zm-8 0c0 2.757 2.243 5 5 5s5-2.243 5-5-2.243-5-5-5-5 2.243-5 5zM51 58H11v-2H9v6h2v-2h40v2h2v-6h-2v2M11 4h40v2h2V0h-2v2H11V0H9v6h2V4M0 8h2v44H0v2h6v-2H4V8h2V6H0v2M62 8V6h-6v2h2v44h-2v2h6v-2h-2V8h2M38 17h2v-2h-2zM22 17h2v-2h-2z"/>
    </g>
</svg>
