<svg width="25" height="28" viewBox="0 0 25 28" xmlns="http://www.w3.org/2000/svg">
    <path d="M24.56 15.797a.406.406 0 0 0 .406-.405V3.887c0-1.12-.911-2.032-2.032-2.032H21.2v-.62C21.199.553 20.645 0 19.965 0h-.186c-.681 0-1.235.554-1.235 1.234v.62H6.456v-.62C6.456.554 5.902 0 5.22 0h-.186c-.68 0-1.234.554-1.234 1.234v.62H2.066c-1.12 0-2.032.912-2.032 2.033v21.79c0 1.118.91 2.029 2.03 2.029h20.873c1.119 0 2.03-.91 2.03-2.03v-8.661a.406.406 0 0 0-.813 0v1.955c0 .511-.415.927-.926.927h-2.71a1.74 1.74 0 0 0-1.737 1.738v2.71c0 .51-.416.926-.927.926H2.066c-.673 0-1.22-.548-1.22-1.22V8.465h2.979a.406.406 0 0 0 0-.812H.845V3.887c0-.673.548-1.22 1.22-1.22h1.736V3.86c0 .68.554 1.234 1.234 1.234a.406.406 0 0 0 0-.812.423.423 0 0 1-.422-.422V2.666h13.931V3.86c0 .68.554 1.234 1.235 1.234a.406.406 0 0 0 0-.812.423.423 0 0 1-.423-.422V2.666h3.578c.673 0 1.22.548 1.22 1.22v3.768H5.448a.406.406 0 0 0 0 .812h18.706v6.925c0 .225.182.406.406.406zm-4.968 8.547v-2.709c0-.51.416-.927.927-.927h2.709c.14 0 .278-.017.41-.049l-4.095 4.094c.032-.131.05-.268.05-.409zM2.066 26.082H18.52c.542 0 1.053-.211 1.436-.595l4.197-4.197v4.386c0 .672-.546 1.218-1.217 1.218H2.063a1.219 1.219 0 0 1-1.217-1.218v-.002c.34.256.762.408 1.22.408zM5.644 1.855H4.613v-.62c0-.234.19-.423.422-.423h.186c.233 0 .423.19.423.422v.62zm14.743 0h-1.03v-.62c0-.234.189-.423.422-.423h.186c.233 0 .422.19.422.422v.62zM12.651 14.71c0-1.268-1.031-2.3-2.3-2.3-1.097 0-2.046.78-2.257 1.855a.406.406 0 0 0 .796.156 1.49 1.49 0 0 1 2.95.289 1.49 1.49 0 0 1-1.489 1.488.406.406 0 0 0 0 .812c.821 0 1.489.668 1.489 1.488a1.49 1.49 0 0 1-1.489 1.488 1.494 1.494 0 0 1-1.489-1.488.406.406 0 0 0-.811 0 2.309 2.309 0 0 0 2.3 2.3 2.299 2.299 0 0 0 1.303-4.194c.602-.415.997-1.109.997-1.894zm3.892 5.93a.406.406 0 0 0 .406-.407v-7.401a.406.406 0 0 0-.406-.406h-1.582a.406.406 0 0 0 0 .811h1.177v6.996c0 .224.181.406.405.406z" fill="#A7A9AC" fill-rule="nonzero"/>
</svg>
