<svg width="63" height="63" viewBox="0 0 63 63" xmlns="http://www.w3.org/2000/svg">
    <g fill="#717171" fill-rule="evenodd">
        <path d="M21 11.242c-1.103 0-2-.897-2-2s.897-2 2-2c1.102 0 2 .897 2 2s-.898 2-2 2zm4-2c0-2.206-1.794-4-4-4s-4 1.794-4 4 1.794 4 4 4 4-1.794 4-4zM22 36.242h5v-4h-5v4zm-7 0h5v-4h-5v4zm-2 2h16v-8H13v8z"/>
        <path d="M28 60.242H14v-11c0-3.859 3.141-7 7-7s7 3.141 7 7v11zm-22-32h30v12.132l-4.555 3.036 1.11 1.664L34 44.11v16.132h-4v-11c0-4.963-4.037-9-9-9s-9 4.037-9 9v11H6v-32zm0-2h2v-11H6v11zm29.601-13H6.399L21 2.484l14.601 10.758zm-1.601 13h2v-11h-2v11zm-4 0h2v-11h-2v11zm-4 0h2v-11h-2v11zm-4 0h2v-11h-2v11zm-4 0h2v-11h-2v11zm-4 0h2v-11h-2v11zm-4 0h2v-11h-2v11zm48 16.535v.465H36v-.465l11-7.333 11 7.333zm-11 5.465c-2.757 0-5 2.243-5 5v7h-6v-15h22v15h-6v-7c0-2.757-2.243-5-5-5zm3 12h-6v-7c0-1.654 1.346-3 3-3s3 1.346 3 3v7zM60 44.11l1.445.964 1.11-1.664L47 33.04l-9 6V28.242h2v-2h-2V15.01l1.407 1.037 1.186-1.61L21 0 1.407 14.437l1.186 1.61L4 15.01v11.232H2v2h2v32H0v2h62v-2h-2V44.11z"/>
    </g>
</svg>
