<svg width="62" height="62" viewBox="0 0 62 62" xmlns="http://www.w3.org/2000/svg">
    <g fill="#717171" fill-rule="evenodd">
        <path d="M52 42c-3.272 0-6.175 1.588-8 4.025V10c0-4.411 3.589-8 8-8s8 3.589 8 8v36.025C58.175 43.588 55.272 42 52 42zm0 18c-4.411 0-8-3.589-8-8s3.589-8 8-8 8 3.589 8 8-3.589 8-8 8zM4 60V44.919A11.936 11.936 0 0 0 12 48h28v-8H24v-2h4v-2c0-2.591-.642-5.173-1.854-7.468L25.864 28H21v.089C18.799 25.588 15.585 24 12 24a11.936 11.936 0 0 0-8 3.081V11h38v41c0 3.272 1.588 6.175 4.025 8H4zm18.377-30h2.269A13.818 13.818 0 0 1 26 36h-2c0-2.187-.598-4.232-1.623-6zm11.18 16H24v-4h9.557A3.953 3.953 0 0 0 33 44c0 .731.212 1.409.557 2zM35 44c0-1.103.897-2 2-2h1v4h-1c-1.103 0-2-.897-2-2zM12 26c5.514 0 10 4.486 10 10v10H12C6.486 46 2 41.514 2 36s4.486-10 10-10zM52 0c-5.176 0-9.445 3.954-9.949 9H2v20.381A11.928 11.928 0 0 0 0 36c0 2.445.739 4.72 2 6.619V62h50c5.514 0 10-4.486 10-10V10c0-5.514-4.486-10-10-10z"/>
        <path d="M56 40h2v-2h-2zM56 36h2V11h-2zM52 46c-3.309 0-6 2.691-6 6s2.691 6 6 6a5.937 5.937 0 0 0 3.569-1.198l-1.193-1.604A3.956 3.956 0 0 1 52 56c-2.206 0-4-1.794-4-4s1.794-4 4-4 4 1.794 4 4c0 .549-.113 1.087-.338 1.599l1.832.802A5.943 5.943 0 0 0 58 52c0-3.309-2.691-6-6-6M12 30c3.309 0 6 2.691 6 6s-2.691 6-6 6-6-2.691-6-6 2.691-6 6-6zm0 14c4.411 0 8-3.589 8-8s-3.589-8-8-8-8 3.589-8 8 3.589 8 8 8z"/>
    </g>
</svg>
