<svg width="30" height="30" viewBox="0 0 30 30" xmlns="http://www.w3.org/2000/svg">
    <path d="M17.982 0c4.179 0 5.694.435 7.222 1.252a8.519 8.519 0 0 1 3.544 3.544C29.565 6.324 30 7.839 30 12.018v5.964c0 4.179-.435 5.694-1.252 7.222a8.519 8.519 0 0 1-3.544 3.544C23.676 29.565 22.161 30 17.982 30h-5.964c-4.179 0-5.694-.435-7.222-1.252a8.519 8.519 0 0 1-3.544-3.544C.435 23.676 0 22.161 0 17.982v-5.964C0 7.84.435 6.324 1.252 4.796a8.519 8.519 0 0 1 3.544-3.544C6.324.435 7.839 0 12.018 0h5.964zm.328 3.75h-6.292c-3.244 0-4.335.21-5.453.809a4.77 4.77 0 0 0-2.006 2.006c-.578 1.08-.794 2.134-.808 5.125l-.001 6.292c0 3.244.21 4.335.809 5.453a4.77 4.77 0 0 0 2.006 2.006c1.118.598 2.21.809 5.453.809h5.964c3.244 0 4.335-.21 5.453-.809a4.77 4.77 0 0 0 2.006-2.006c.598-1.118.809-2.21.809-5.453v-5.964c0-3.244-.21-4.335-.809-5.453a4.77 4.77 0 0 0-2.006-2.006c-1.08-.578-2.134-.794-5.125-.808zM15 9.376a5.625 5.625 0 1 1 0 11.25 5.625 5.625 0 0 1 0-11.25zm6.563-2.813a1.875 1.875 0 1 1 0 3.75 1.875 1.875 0 0 1 0-3.75z" fill="#B4A071" fill-rule="nonzero"/>
</svg>
