<svg width="62" height="62" viewBox="0 0 62 62" xmlns="http://www.w3.org/2000/svg">
    <g fill="#B4A071" fill-rule="evenodd">
        <path d="M60 54c0 1.103-.897 2-2 2s-2-.897-2-2v-1.127l-8.744-34.008a5.992 5.992 0 0 0 3.608-2.367L60 52.126V54zM49 38v-4h-6v4h-1.11L46 22.017 50.11 38H49zm-4 4h2v-6h-2v6zm-8.969 10.751L36 54c0 1.103-.897 2-2 2s-2-.897-2-2v-1.874l9.136-35.628a5.992 5.992 0 0 0 3.608 2.367l-8.713 33.886zM30.737 49H21V31h14.353l-1.795 7H30v2h3.045l-2.308 9zm5.128-20h-12.99l9.14-4.875 4.52 2.261-.67 2.614zM14 48V17h24.942l-1.898 7.403-5.059-2.528-15.456 8.242.942 1.766L19 31.067V51h11.224l-.193.752L30.014 53H11.89A6.979 6.979 0 0 0 14 48zM2 48c0-2.757 2.243-5 5-5s5 2.243 5 5-2.243 5-5 5-5-2.243-5-5zm0-32c0-2.757 2.243-5 5-5s5 2.243 5 5v27.11a6.979 6.979 0 0 0-10 0V16zm44-7c2.206 0 4 1.794 4 4s-1.794 4-4 4-4-1.794-4-4 1.794-4 4-4zm-2-7h4v5.35A5.976 5.976 0 0 0 46 7c-.702 0-1.373.128-2 .35V2zm18 36h-3.558l-6.45-25.157A5.98 5.98 0 0 0 50 8.54V0h-8v8.54a5.984 5.984 0 0 0-1.992 4.303L39.455 15H13.92c-.488-3.387-3.401-6-6.92-6-3.859 0-7 3.141-7 7v32c0 3.859 3.141 7 7 7h23.142A3.995 3.995 0 0 0 33 57.858V62h2v-4.142c1.721-.447 3-2 3-3.858v-.873L41.376 40H43v4h6v-4h1.624L54 53.127V54c0 1.858 1.279 3.411 3 3.858V62h2v-4.142c1.721-.447 3-2 3-3.858v-2.126L58.955 40H62v-2z"/>
        <path d="M4 50h2v-2H4zM4 46h2V31H4z"/>
    </g>
</svg>
