<svg width="237" height="34" viewBox="0 0 237 34" xmlns="http://www.w3.org/2000/svg" xmlns:xlink="http://www.w3.org/1999/xlink">
    <defs>
        <path id="j4keww1o8a" d="M0 0h234v34H0z"/>
    </defs>
    <g fill="none" fill-rule="evenodd">
        <g>
            <mask id="i3ypewt4wb" fill="#fff">
                <use xlink:href="#j4keww1o8a"/>
            </mask>
            <path d="M233.959 16.476s-13.73 7.612-37.121 5.956c0 0-29.324-2.978-53.054-9.1l-29.324-7.28-14.746-3.308C66.392-2.906 26.114-1.523.725 23.26c0 0-4.916 12.905 10.848 10.423 0 0 9.153-11.085 19.662-14.725 0 0 15.086-8.933 45.427-9.43 0 0 26.272.826 48.138 5.79 0 0 46.91 7.983 50.935 7.983 4.026 0 15.413 2.518 34.524.947 2.386-.197 24.832-3.418 23.7-7.772" fill="#B4A071" mask="url(#i3ypewt4wb)"/>
        </g>
        <path d="M148.277 9.244c25.12 8.02 59.992 9.679 84.133-3.083 0 0 6.96-1.607 3.74 5.334 0 0-4.675 6.332-35.863 7.5 0 0-15.467.333-33.399-4.084l-18.802-4.73s-.288-.635.191-.937" fill="#B4A071"/>
    </g>
</svg>
