<svg width="228" height="88" viewBox="0 0 228 88" xmlns="http://www.w3.org/2000/svg" xmlns:xlink="http://www.w3.org/1999/xlink">
    <defs>
        <path id="t897ntnyna" d="M0 0h224.259v32.63H0z"/>
        <path id="5phfxnnajc" d="M0 87.674h227.309V0H0z"/>
    </defs>
    <g fill="none" fill-rule="evenodd">
        <path fill="#8A8D8F" d="M19.134 77.245h135.61v-2.626H19.134z"/>
        <g>
            <path d="m44.003 74.72-3.769-12.68 2.946-4.28 2.974-4.365 3.265 10.785c.232.753.588 1.931 1.056 3.524.444 1.501.794 2.67 1.041 3.51.474 1.592.814 2.765 1.026 3.51l-8.539-.005zm-.868.003-2.254-8.289-.711-2.602-3.102 4.345-2.957 4.278-7.484-10.054 2.874-9.006a213.233 213.233 0 0 0 2.984 4.258c.74 1.038 1.219 1.704 1.436 2a245.724 245.724 0 0 0 4.084 5.444l2.595-3.63 3.605 13.251-1.07.005zm-9.461-1.559-6.615-8.81c-.256.868-.557 1.926-.893 3.171a282.442 282.442 0 0 0-.853 3.22c-.232.908-.464 1.888-.706 2.945l-.128.521c-.059.266-.143.45-.246.551-.089.106-.222.154-.405.16a4.836 4.836 0 0 1-.478-.025.912.912 0 0 1-.301-.107c-.109-.057-.158-.173-.158-.352l.039-.24.134-.44 3.64-11.6 7.552 10.117-.582.89zm30.677-20.319 12.791 21.878H67.049L59.412 61.16l4.939-8.314zm-.118 18.084a128.953 128.953 0 0 0-2.368-4.254 128.602 128.602 0 0 0-2.284-3.799l-4.883 8.053h9.535zm2.062 3.8-1.505-2.787H54.101c-.114.18-.247.401-.395.662-.148.265-.321.57-.513.917-.508.912-.898 1.366-1.154 1.371a.627.627 0 0 1-.4-.179.53.53 0 0 1-.192-.4c0-.155.567-1.1 1.712-2.839.039-.068.399-.642 1.085-1.723.177-.276.518-.83 1.031-1.666.611-.999.937-1.535.986-1.612l3.384-5.745 7.937 14.005-1.287-.005zm20.727-20.093v19.74l.464.028h.72c2.95 0 5.328-.79 7.133-2.37 1.806-1.579 2.92-3.862 3.345-6.84h-8.919c-.404 0-.666-.034-.784-.107-.124-.067-.183-.193-.183-.376 0-.169.055-.285.158-.348.109-.063.35-.096.725-.096h10.068c0 1.684-.296 3.23-.893 4.644a10.962 10.962 0 0 1-2.427 3.514c-2.032 1.955-4.735 2.935-8.104 2.935-1.658 0-3.197-.285-4.627-.854A10.677 10.677 0 0 1 79.949 72V57.112c1.125-1.149 2.387-2.013 3.783-2.587a11.809 11.809 0 0 1 2.176-.633 12.587 12.587 0 0 1 2.387-.227c1.455 0 2.807.222 4.065.662 1.258.444 2.486 1.14 3.69 2.09.483.367.863.734 1.139 1.091.281.357.419.637.419.845a.352.352 0 0 1-.108.275c-.069.072-.183.116-.336.135-.212 0-.503-.207-.868-.623a7.625 7.625 0 0 0-.636-.666c-1.095-.96-2.264-1.68-3.503-2.162a10.793 10.793 0 0 0-3.921-.72h-.464l-.75.044zM79.949 72c-1.235-1.47-2.259-3.307-2.565-4.306a11.109 11.109 0 0 1-.454-3.196c0-.565.034-1.09.103-1.569.065-.482.183-.999.351-1.559.281-.97 1.505-3.117 2.565-4.258V72zm42.827 3.384c-1.244-.709-2.373-1.356-3.394-1.93a424.476 424.476 0 0 0-3.325-1.85 162.1 162.1 0 0 0-3.265-1.786 262.8 262.8 0 0 0-4.751-2.5 294.809 294.809 0 0 0-4.651-2.35v4.638c0 .434.014.994.044 1.67.03.681.044 1.091.044 1.231l.06 1.555c0 .333-.05.56-.144.68-.093.121-.261.184-.503.184-.276 0-.463-.058-.562-.169-.104-.116-.153-.372-.153-.778.03-.463.059-.946.084-1.453.025-.502.035-.946.035-1.322 0-.565.019-1.28.059-2.149.039-.868.059-1.399.059-1.597v-4.287l20.348 10.94.015 1.273zm-20.363-21.728a504.39 504.39 0 0 0 3.236 1.863c.947.536 2.027 1.14 3.241 1.81.897.498 1.978 1.087 3.25 1.762a298.898 298.898 0 0 0 9.659 4.94v-4.626c0-.299-.015-.767-.045-1.4a34.344 34.344 0 0 1-.044-1.472l-.089-1.598c0-.328.05-.555.143-.676.099-.125.267-.183.508-.183.262 0 .449.053.568.16.113.11.172.284.172.53-.029.531-.054 1.081-.079 1.656a36.378 36.378 0 0 0-.039 1.443c0 .546-.02 1.231-.059 2.052-.04.821-.059 1.371-.059 1.651l-.012 12.85-20.351-10.879v-9.883zm33.893-.81 12.791 21.877h-10.354l-7.57-13.236 5.133-8.642zm-.118 18.083a128.953 128.953 0 0 0-2.368-4.254 126.471 126.471 0 0 0-2.284-3.799l-4.883 8.053h9.535zm2.062 3.8-1.505-2.787h-10.689c-.114.18-.247.401-.395.662l-.513.917c-.508.912-.898 1.366-1.154 1.371a.627.627 0 0 1-.4-.179.53.53 0 0 1-.192-.4c0-.155.567-1.1 1.712-2.839.039-.068.399-.642 1.085-1.723.178-.276.518-.83 1.031-1.666.612-.999.937-1.535.986-1.612l3.384-5.745 7.937 14.005-1.287-.005z" fill="#8A8D8F"/>
            <g transform="translate(0 29.24)">
                <mask id="8eursvt4ob" fill="#fff">
                    <use xlink:href="#t897ntnyna"/>
                </mask>
                <path d="M224.219 15.812s-13.158 7.305-35.575 5.716c0 0-28.104-2.858-50.846-8.733L109.696 5.81 95.563 2.633C63.629-2.789 25.027-1.46.695 22.323c0 0-4.711 12.384 10.396 10.002 0 0 8.773-10.638 18.844-14.13 0 0 14.457-8.575 43.535-9.052 0 0 25.179.794 46.134 5.558 0 0 44.958 7.661 48.816 7.661 3.858 0 14.771 2.417 33.086.908 2.287-.188 23.799-3.28 22.713-7.458" fill="#8A8D8F" mask="url(#8eursvt4ob)"/>
            </g>
            <path d="M142.511 38.02c24.008 7.64 57.338 9.22 80.411-2.939 0 0 6.651-1.53 3.574 5.082 0 0-4.468 6.035-34.277 7.146 0 0-14.782.318-31.92-3.89l-17.971-4.508s-.275-.605.183-.892M147.094 7.622 126.3 33.345h-7.147l23.879-30.963zM144.495 0l49.87.318 25.504 32.867-50.033.477z" fill="#8A8D8F"/>
            <mask id="gynpwgkv3d" fill="#fff">
                <use xlink:href="#5phfxnnajc"/>
            </mask>
            <path fill="#8A8D8F" mask="url(#gynpwgkv3d)" d="M1.463 87.535h.986V82.08h-.986zM9.126 86.441h.02v-4.36h.985v5.454H8.887l-3.722-4.453h-.019v4.453H4.16V82.08h1.284zM15.345 83.09a1.537 1.537 0 0 0-.567-.366 2.164 2.164 0 0 0-.806-.142c-.159 0-.32.016-.482.05-.162.033-.31.087-.444.16-.131.076-.24.168-.322.279a.64.64 0 0 0-.124.397.6.6 0 0 0 .114.373c.075.1.178.185.307.254.13.07.284.129.458.177.177.05.365.099.563.15.239.057.482.122.726.193.245.072.468.167.667.285.2.119.361.266.487.443.127.177.19.403.19.675 0 .282-.067.527-.203.735a1.672 1.672 0 0 1-.543.517 2.634 2.634 0 0 1-.781.304 4.189 4.189 0 0 1-2.199-.1 2.614 2.614 0 0 1-1.03-.593l.765-.501c.166.19.388.344.668.462.277.118.58.177.905.177.165 0 .331-.018.497-.054.165-.036.317-.092.452-.17.136-.076.248-.172.334-.288a.683.683 0 0 0 .13-.42.635.635 0 0 0-.134-.412 1.108 1.108 0 0 0-.364-.282 2.768 2.768 0 0 0-.533-.196 38.44 38.44 0 0 0-.64-.165 6.947 6.947 0 0 1-.668-.19 2.52 2.52 0 0 1-.587-.284 1.42 1.42 0 0 1-.417-.428 1.168 1.168 0 0 1-.16-.631c0-.273.072-.506.215-.702.141-.195.327-.357.556-.485.229-.128.488-.222.777-.281.288-.06.578-.09.87-.09.412 0 .796.057 1.155.17.357.114.646.265.866.455l-.697.524zM18.848 85.524h2.637l-1.313-2.558-1.324 2.558zm-1.055 2.011h-1.095l3.056-5.455h.895l3.025 5.455H22.56l-.717-1.34H18.5l-.707 1.34zM25.924 85.524h2.637l-1.313-2.558-1.324 2.558zm-1.055 2.011h-1.095l3.056-5.455h.895l3.025 5.455h-1.114l-.717-1.34h-3.343l-.707 1.34zM33.527 87.535h-.985v-4.784h-2.26v-.67h5.504v.67h-2.26zM41.2 87.535h-.986v-4.784h-2.258v-.67h5.502v.67H41.2zM47.08 87.674c-.465 0-.869-.061-1.214-.181a2.546 2.546 0 0 1-.856-.482c-.226-.2-.393-.43-.502-.689a2.045 2.045 0 0 1-.165-.805V82.08h.986v3.39c0 .185.03.369.09.551.06.183.157.346.293.489.136.144.315.26.537.347.222.088.5.131.831.131.325 0 .6-.043.826-.131.225-.087.406-.203.542-.347.136-.143.234-.306.294-.489a1.75 1.75 0 0 0 .09-.551v-3.39h.985v3.437c0 .277-.055.545-.164.805-.11.259-.277.489-.503.689-.226.2-.51.361-.856.482-.345.12-.749.181-1.214.181M52.464 84.469h1.134c.232 0 .448-.015.647-.046.2-.032.373-.082.522-.15a.937.937 0 0 0 .354-.27.648.648 0 0 0 .13-.412.652.652 0 0 0-.13-.412.931.931 0 0 0-.343-.267 1.796 1.796 0 0 0-.503-.142 4.21 4.21 0 0 0-.607-.042h-1.204v1.74zm0 3.067h-.986V82.08h2.26c.338 0 .66.028.965.082.305.053.572.14.801.257.23.118.41.273.542.466.133.192.2.428.2.706 0 .4-.16.724-.478.97-.319.246-.73.403-1.234.47l1.97 2.504H55.31l-1.79-2.426h-1.056v2.427zM57.589 87.535h.986V82.08h-.986zM64.933 82.75l-3.98 4.107h4.04v.678h-5.235v-.67l3.971-4.114h-3.89v-.671h5.094zM69.82 86.272h.02l2.08-4.192h1.531v5.455h-.985v-4.561h-.019l-2.339 4.56h-.627l-2.329-4.56h-.02v4.56h-.955V82.08h1.532zM77.651 87.535h.986V82.08h-.986zM86.389 86.687c-.28.293-.64.531-1.085.713-.444.182-.978.274-1.602.274a4.973 4.973 0 0 1-1.488-.213 3.672 3.672 0 0 1-1.174-.593 2.79 2.79 0 0 1-.771-.909 2.441 2.441 0 0 1-.28-1.159c0-.427.096-.815.285-1.167.189-.353.45-.653.786-.902a3.832 3.832 0 0 1 1.189-.58 5.122 5.122 0 0 1 1.493-.209c.239 0 .48.018.726.053.246.036.48.09.707.162.225.072.43.161.617.266.185.105.345.227.478.366l-.777.462c-.172-.185-.416-.338-.731-.458a2.82 2.82 0 0 0-1.02-.18 3.35 3.35 0 0 0-1.11.172 2.578 2.578 0 0 0-.84.474 2.1 2.1 0 0 0-.538.697 1.94 1.94 0 0 0-.19.844 2.03 2.03 0 0 0 .712 1.56c.229.197.508.353.836.466.329.113.695.17 1.1.17.398 0 .76-.062 1.085-.185a2.03 2.03 0 0 0 .806-.54l.786.416zM92.04 86.549h.03l2.12-4.469h1.065l-2.766 5.455h-.916l-2.746-5.455h1.095zM97.076 86.857h3.682v.678H96.09V82.08h4.518v.67h-3.532v1.634h3.324v.655h-3.324zM105.545 86.865h1.234a4.73 4.73 0 0 0 1.179-.139c.361-.093.673-.226.935-.4.262-.175.466-.391.613-.648.145-.256.218-.546.218-.87 0-.339-.073-.637-.218-.894a1.88 1.88 0 0 0-.613-.643 3 3 0 0 0-.935-.393 4.879 4.879 0 0 0-1.179-.135h-1.234v4.122zm-.986-4.785h2.419c.451 0 .902.052 1.353.154a4.14 4.14 0 0 1 1.224.486c.365.221.661.503.886.847.225.345.338.758.338 1.241 0 .467-.113.872-.338 1.213a2.788 2.788 0 0 1-.886.848c-.365.223-.773.39-1.224.5a5.642 5.642 0 0 1-1.353.166h-2.419V82.08zM112.132 87.535h.986V82.08h-.986zM118.332 83.09a1.537 1.537 0 0 0-.567-.366 2.164 2.164 0 0 0-.806-.142c-.159 0-.32.016-.483.05-.162.033-.31.087-.443.16-.132.076-.24.168-.323.279a.64.64 0 0 0-.124.397.6.6 0 0 0 .114.373c.076.1.18.185.308.254.13.07.283.129.458.177.176.05.364.099.562.15.24.057.482.122.727.193.245.072.468.167.667.285.2.119.361.266.487.443s.19.403.19.675c0 .282-.068.527-.204.735a1.672 1.672 0 0 1-.543.517 2.634 2.634 0 0 1-.78.304 4.189 4.189 0 0 1-2.199-.1 2.614 2.614 0 0 1-1.03-.593l.765-.501c.166.19.388.344.667.462.278.118.58.177.905.177.166 0 .332-.018.498-.054.165-.036.317-.092.452-.17.136-.076.248-.172.334-.288a.683.683 0 0 0 .13-.42.635.635 0 0 0-.135-.412 1.108 1.108 0 0 0-.363-.282 2.768 2.768 0 0 0-.533-.196 38.44 38.44 0 0 0-.64-.165 6.947 6.947 0 0 1-.668-.19 2.52 2.52 0 0 1-.587-.284 1.42 1.42 0 0 1-.418-.428 1.168 1.168 0 0 1-.159-.631c0-.273.071-.506.214-.702.142-.195.328-.357.557-.485.228-.128.487-.222.776-.281.288-.06.578-.09.871-.09.411 0 .796.057 1.154.17.358.114.647.265.866.455l-.697.524zM125.209 87.535h-.985v-4.784h-2.26v-.67h5.504v.67h-2.26zM128.402 87.535h.986V82.08h-.986zM137.14 86.687c-.279.293-.64.531-1.085.713-.444.182-.978.274-1.602.274a4.973 4.973 0 0 1-1.488-.213 3.672 3.672 0 0 1-1.174-.593 2.79 2.79 0 0 1-.77-.909 2.441 2.441 0 0 1-.28-1.159c0-.427.095-.815.284-1.167.19-.353.451-.653.786-.902a3.832 3.832 0 0 1 1.19-.58 5.122 5.122 0 0 1 1.492-.209c.24 0 .481.018.726.053.246.036.481.09.707.162.225.072.431.161.617.266.185.105.345.227.478.366l-.777.462c-.172-.185-.416-.338-.73-.458a2.82 2.82 0 0 0-1.02-.18 3.35 3.35 0 0 0-1.11.172 2.578 2.578 0 0 0-.84.474 2.1 2.1 0 0 0-.539.697 1.94 1.94 0 0 0-.189.844 2.03 2.03 0 0 0 .711 1.56c.23.197.508.353.836.466.33.113.695.17 1.1.17.398 0 .76-.062 1.085-.185a2.03 2.03 0 0 0 .806-.54l.786.416zM139.37 85.524h2.636l-1.313-2.558-1.324 2.558zm-1.056 2.011h-1.095l3.056-5.455h.895l3.025 5.455h-1.114l-.717-1.34h-3.343l-.707 1.34zM146.087 84.469h1.134c.232 0 .448-.015.647-.046.199-.032.373-.082.522-.15a.937.937 0 0 0 .354-.27.648.648 0 0 0 .129-.412.652.652 0 0 0-.13-.412.931.931 0 0 0-.342-.267 1.796 1.796 0 0 0-.503-.142 4.21 4.21 0 0 0-.607-.042h-1.204v1.74zm0 3.067h-.986V82.08h2.26c.338 0 .66.028.965.082.305.053.572.14.8.257.23.118.41.273.543.466.133.192.2.428.2.706 0 .4-.16.724-.478.97-.32.246-.73.403-1.234.47l1.97 2.504h-1.194l-1.791-2.426h-1.055v2.427zM152.197 86.857h3.682v.678h-4.668V82.08h4.518v.67h-3.532v1.634h3.324v.655h-3.324zM159.66 87.535h-.985v-4.784h-2.26v-.67h5.504v.67h-2.26zM168.607 83.09a1.537 1.537 0 0 0-.567-.366 2.164 2.164 0 0 0-.806-.142c-.16 0-.32.016-.483.05-.163.033-.31.087-.443.16-.132.076-.24.168-.323.279a.64.64 0 0 0-.124.397c0 .148.037.273.114.373.076.1.179.185.309.254.129.07.282.129.457.177.176.05.364.099.563.15.238.057.48.122.726.193.245.072.468.167.667.285.199.119.36.266.487.443.126.177.189.403.189.675 0 .282-.068.527-.203.735a1.682 1.682 0 0 1-.543.517 2.624 2.624 0 0 1-.781.304 4.2 4.2 0 0 1-2.2-.1 2.62 2.62 0 0 1-1.03-.593l.767-.501c.166.19.388.344.667.462.279.118.58.177.906.177.165 0 .33-.018.497-.054.166-.036.317-.092.453-.17.135-.076.247-.172.333-.288a.683.683 0 0 0 .129-.42.63.63 0 0 0-.134-.412 1.108 1.108 0 0 0-.363-.282 2.782 2.782 0 0 0-.532-.196 41.359 41.359 0 0 0-.642-.165 7.05 7.05 0 0 1-.668-.19 2.532 2.532 0 0 1-.586-.284 1.42 1.42 0 0 1-.418-.428 1.168 1.168 0 0 1-.16-.631c0-.273.072-.506.214-.702.143-.195.329-.357.557-.485.23-.128.488-.222.777-.281.289-.06.579-.09.87-.09.412 0 .797.057 1.155.17.358.114.647.265.866.455l-.697.524zM172.109 85.524h2.637l-1.313-2.558-1.324 2.558zm-1.055 2.011h-1.094l3.055-5.455h.895l3.025 5.455h-1.114l-.716-1.34h-3.344l-.707 1.34zM182.807 86.441h.02v-4.36h.985v5.454h-1.244l-3.721-4.453h-.021v4.453h-.985V82.08h1.284zM186.628 87.073c0 .134-.063.252-.189.355a.737.737 0 0 1-.478.154.757.757 0 0 1-.473-.15c-.129-.1-.193-.218-.193-.352 0-.138.062-.257.19-.358a.744.744 0 0 1 .476-.15c.192 0 .352.05.478.147a.435.435 0 0 1 .19.354M191.285 86.857h3.145v.678h-4.13V82.08h.985zM196.948 87.535h-.985v-4.784h-2.26v-.67h5.505v.67h-2.26zM201.127 86.865h1.234c.425 0 .818-.046 1.179-.139.362-.093.673-.226.936-.4.262-.175.466-.391.612-.648.145-.256.219-.546.219-.87 0-.339-.074-.637-.22-.894a1.868 1.868 0 0 0-.611-.643 3.007 3.007 0 0 0-.936-.393 4.867 4.867 0 0 0-1.18-.135h-1.233v4.122zm-.985-4.785h2.418c.45 0 .902.052 1.354.154a4.14 4.14 0 0 1 1.224.486c.364.221.66.503.885.847.226.345.339.758.339 1.241 0 .467-.113.872-.34 1.213a2.795 2.795 0 0 1-.884.848c-.365.223-.773.39-1.224.5a5.657 5.657 0 0 1-1.354.166h-2.418V82.08zM208.342 87.073c0 .134-.063.252-.189.355a.737.737 0 0 1-.478.154.757.757 0 0 1-.473-.15c-.129-.1-.193-.218-.193-.352 0-.138.062-.257.19-.358a.744.744 0 0 1 .476-.15c.192 0 .352.05.478.147a.435.435 0 0 1 .19.354M215.517 83.09a1.537 1.537 0 0 0-.567-.366 2.164 2.164 0 0 0-.806-.142c-.16 0-.32.016-.483.05-.163.033-.31.087-.443.16-.132.076-.24.168-.323.279a.64.64 0 0 0-.124.397c0 .148.037.273.114.373.076.1.179.185.309.254.129.07.282.129.457.177.176.05.364.099.563.15.238.057.48.122.726.193.245.072.468.167.667.285.198.119.36.266.487.443.126.177.189.403.189.675 0 .282-.068.527-.203.735a1.682 1.682 0 0 1-.543.517 2.624 2.624 0 0 1-.781.304 4.2 4.2 0 0 1-2.2-.1 2.62 2.62 0 0 1-1.03-.593l.767-.501c.166.19.388.344.667.462.279.118.58.177.906.177.165 0 .33-.018.497-.054.166-.036.317-.092.453-.17.135-.076.247-.172.333-.288a.683.683 0 0 0 .129-.42.63.63 0 0 0-.134-.412 1.108 1.108 0 0 0-.363-.282 2.782 2.782 0 0 0-.532-.196 41.359 41.359 0 0 0-.642-.165 7.05 7.05 0 0 1-.668-.19 2.532 2.532 0 0 1-.586-.284 1.42 1.42 0 0 1-.418-.428 1.168 1.168 0 0 1-.16-.631c0-.273.072-.506.214-.702.143-.195.329-.357.557-.485.23-.128.488-.222.777-.281.289-.06.579-.09.87-.09.412 0 .797.057 1.155.17.358.114.647.265.866.455l-.697.524zM219.984 87.535H219v-4.784h-2.26v-.67h5.504v.67h-2.26zM223.179 87.535h.985V82.08h-.985zM226.98 87.073c0 .134-.063.252-.189.355a.737.737 0 0 1-.478.154.757.757 0 0 1-.473-.15c-.129-.1-.193-.218-.193-.352 0-.138.062-.257.19-.358a.744.744 0 0 1 .476-.15c.192 0 .352.05.478.147a.435.435 0 0 1 .19.354"/>
        </g>
    </g>
</svg>
