<svg width="20" height="28" viewBox="0 0 20 28" xmlns="http://www.w3.org/2000/svg">
    <g fill="#A7A9AC" fill-rule="nonzero">
        <path d="M9.97 0C4.474 0 .005 4.47.005 9.963c0 1.809.811 3.754.845 3.836.262.622.779 1.588 1.152 2.154l6.831 10.35c.28.425.693.668 1.135.668.442 0 .856-.243 1.135-.667l6.832-10.35a16 16 0 0 0 1.152-2.155c.034-.081.845-2.026.845-3.836C19.933 4.47 15.463 0 9.969 0zm8.037 13.344a14.722 14.722 0 0 1-1.05 1.964l-6.831 10.351c-.135.205-.178.205-.313 0L2.981 15.308a14.729 14.729 0 0 1-1.05-1.964c-.01-.024-.753-1.815-.753-3.38 0-4.848 3.944-8.792 8.791-8.792 4.848 0 8.791 3.944 8.791 8.791 0 1.569-.745 3.364-.753 3.381z"/>
        <path d="M9.97 4.69a5.28 5.28 0 0 0-5.275 5.274 5.28 5.28 0 0 0 5.274 5.275 5.28 5.28 0 0 0 5.275-5.275 5.28 5.28 0 0 0-5.275-5.275zm0 9.377a4.107 4.107 0 0 1-4.103-4.103 4.107 4.107 0 0 1 4.102-4.103 4.107 4.107 0 0 1 4.103 4.103 4.107 4.107 0 0 1-4.103 4.103z"/>
    </g>
</svg>
