<svg width="62" height="62" viewBox="0 0 62 62" xmlns="http://www.w3.org/2000/svg">
    <g fill="#717171" fill-rule="evenodd">
        <path d="M4 20h14v2h-4v6h4v2h-4v6h4v2h-4v6h4v16H4V20zm12 22h2v-2h-2v2zm0-8h2v-2h-2v2zm0-8h2v-2h-2v2zm18 34h6V46h-6v14zm-8 0h6V46h-6v14zm20-50v50h-4V46h2v-2H22v2h2v14h-4V10h26zM22 4h22v4h-2V6h-2v2h-2V6h-2v2h-2V6h-2v2h-2V6h-2v2h-2V6h-2v2h-2V4zm26 40h6v-4h-6v4zm0-6h6v-4h-6v4zm10-8v30H48V46h8V32h-8v-2h10zm2 30V28H48V8h-2V2H34V0h-2v2H20v6h-2v10H2v42H0v2h62v-2h-2z"/>
        <path d="M8 26h2v-2H8v2zm-2 2h6v-6H6v6zM24 16h2v-2h-2v2zm-2 2h6v-6h-6v6zM32 16h2v-2h-2v2zm-2 2h6v-6h-6v6zM40 16h2v-2h-2v2zm-2 2h6v-6h-6v6zM24 24h2v-2h-2v2zm-2 2h6v-6h-6v6zM32 24h2v-2h-2v2zm-2 2h6v-6h-6v6zM40 24h2v-2h-2v2zm-2 2h6v-6h-6v6zM40 32h2v-2h-2v2zm-2 2h6v-6h-6v6zM40 40h2v-2h-2v2zm-2 2h6v-6h-6v6zM24 32h2v-2h-2v2zm-2 2h6v-6h-6v6zM32 32h2v-2h-2v2zm-2 2h6v-6h-6v6zM24 40h2v-2h-2v2zm-2 2h6v-6h-6v6zM32 40h2v-2h-2v2zm-2 2h6v-6h-6v6zM8 34h2v-2H8v2zm-2 2h6v-6H6v6zM8 42h2v-2H8v2zm-2 2h6v-6H6v6z"/>
    </g>
</svg>
